<svg width="884" height="297" viewBox="0 0 884 297" fill="none" xmlns="http://www.w3.org/2000/svg">
<path d="M867.222 287.053V291.75H868.608C869.318 291.75 869.813 291.4 870.093 290.7C870.246 290.316 870.322 289.859 870.322 289.328C870.322 288.596 870.207 288.034 869.976 287.644C869.748 287.25 869.292 287.053 868.608 287.053H867.222ZM868.862 285.803C869.308 285.809 869.679 285.861 869.976 285.959C870.48 286.125 870.889 286.429 871.201 286.872C871.452 287.23 871.623 287.618 871.714 288.034C871.805 288.451 871.851 288.848 871.851 289.226C871.851 290.183 871.659 290.993 871.274 291.657C870.754 292.552 869.95 293 868.862 293H865.762V285.803H868.862ZM874.976 288.684C874.653 288.684 874.403 288.785 874.224 288.986C874.048 289.188 873.937 289.462 873.892 289.807H876.055C876.032 289.439 875.92 289.16 875.718 288.972C875.519 288.78 875.272 288.684 874.976 288.684ZM874.976 287.536C875.418 287.536 875.817 287.619 876.172 287.785C876.527 287.951 876.82 288.213 877.051 288.571C877.259 288.887 877.394 289.253 877.456 289.67C877.492 289.914 877.507 290.266 877.5 290.725H873.857C873.877 291.258 874.045 291.633 874.36 291.848C874.552 291.981 874.784 292.048 875.054 292.048C875.34 292.048 875.573 291.966 875.752 291.804C875.85 291.716 875.936 291.594 876.011 291.438H877.432C877.396 291.753 877.231 292.074 876.938 292.399C876.483 292.917 875.845 293.176 875.024 293.176C874.347 293.176 873.75 292.958 873.232 292.521C872.715 292.085 872.456 291.376 872.456 290.393C872.456 289.471 872.689 288.765 873.154 288.273C873.623 287.782 874.23 287.536 874.976 287.536ZM881.621 289.587C881.595 289.388 881.528 289.209 881.421 289.05C881.265 288.835 881.022 288.728 880.693 288.728C880.225 288.728 879.904 288.96 879.731 289.426C879.64 289.673 879.595 290.002 879.595 290.412C879.595 290.803 879.64 291.117 879.731 291.354C879.897 291.797 880.21 292.019 880.669 292.019C880.994 292.019 881.226 291.931 881.362 291.755C881.499 291.579 881.582 291.351 881.611 291.071H883.032C883 291.494 882.847 291.895 882.573 292.272C882.137 292.881 881.491 293.186 880.635 293.186C879.779 293.186 879.149 292.932 878.745 292.424C878.341 291.916 878.14 291.257 878.14 290.446C878.14 289.532 878.363 288.82 878.809 288.312C879.255 287.805 879.87 287.551 880.654 287.551C881.322 287.551 881.867 287.701 882.29 288C882.716 288.299 882.969 288.828 883.047 289.587H881.621Z" fill="#CBD5E0"/>
<path d="M789.737 285.803H791.314L794.181 290.827V285.803H795.582V293H794.078L791.139 287.888V293H789.737V285.803ZM799.264 292.019C799.671 292.019 799.983 291.874 800.201 291.584C800.419 291.294 800.528 290.882 800.528 290.349C800.528 289.815 800.419 289.405 800.201 289.118C799.983 288.828 799.671 288.684 799.264 288.684C798.857 288.684 798.543 288.828 798.321 289.118C798.103 289.405 797.994 289.815 797.994 290.349C797.994 290.882 798.103 291.294 798.321 291.584C798.543 291.874 798.857 292.019 799.264 292.019ZM801.988 290.349C801.988 291.13 801.764 291.799 801.314 292.355C800.865 292.909 800.183 293.186 799.269 293.186C798.354 293.186 797.672 292.909 797.223 292.355C796.773 291.799 796.549 291.13 796.549 290.349C796.549 289.58 796.773 288.915 797.223 288.352C797.672 287.788 798.354 287.507 799.269 287.507C800.183 287.507 800.865 287.788 801.314 288.352C801.764 288.915 801.988 289.58 801.988 290.349ZM806.271 287.678H807.765L805.846 293H804.376L802.467 287.678H804.029L805.138 291.604L806.271 287.678Z" fill="#CBD5E0"/>
<path d="M718.945 291.926C719.541 291.926 720.013 291.706 720.361 291.267C720.713 290.827 720.889 290.202 720.889 289.392C720.889 288.584 720.713 287.961 720.361 287.521C720.013 287.079 719.541 286.857 718.945 286.857C718.35 286.857 717.874 287.077 717.52 287.517C717.165 287.956 716.987 288.581 716.987 289.392C716.987 290.202 717.165 290.827 717.52 291.267C717.874 291.706 718.35 291.926 718.945 291.926ZM722.393 289.392C722.393 290.684 722.03 291.674 721.304 292.36C720.76 292.92 719.974 293.2 718.945 293.2C717.917 293.2 717.131 292.92 716.587 292.36C715.858 291.674 715.493 290.684 715.493 289.392C715.493 288.073 715.858 287.084 716.587 286.423C717.131 285.863 717.917 285.583 718.945 285.583C719.974 285.583 720.76 285.863 721.304 286.423C722.03 287.084 722.393 288.073 722.393 289.392ZM726.611 289.587C726.585 289.388 726.519 289.209 726.411 289.05C726.255 288.835 726.012 288.728 725.684 288.728C725.215 288.728 724.894 288.96 724.722 289.426C724.631 289.673 724.585 290.002 724.585 290.412C724.585 290.803 724.631 291.117 724.722 291.354C724.888 291.797 725.2 292.019 725.659 292.019C725.985 292.019 726.216 291.931 726.353 291.755C726.489 291.579 726.572 291.351 726.602 291.071H728.022C727.99 291.494 727.837 291.895 727.563 292.272C727.127 292.881 726.481 293.186 725.625 293.186C724.769 293.186 724.139 292.932 723.735 292.424C723.332 291.916 723.13 291.257 723.13 290.446C723.13 289.532 723.353 288.82 723.799 288.312C724.245 287.805 724.86 287.551 725.645 287.551C726.312 287.551 726.857 287.701 727.28 288C727.707 288.299 727.959 288.828 728.037 289.587H726.611ZM728.452 288.718V287.727H729.194V286.242H730.571V287.727H731.436V288.718H730.571V291.53C730.571 291.748 730.599 291.885 730.654 291.94C730.71 291.993 730.879 292.019 731.162 292.019C731.204 292.019 731.248 292.019 731.294 292.019C731.343 292.015 731.39 292.012 731.436 292.009V293.049L730.776 293.073C730.119 293.096 729.67 292.982 729.429 292.731C729.272 292.572 729.194 292.326 729.194 291.994V288.718H728.452Z" fill="#CBD5E0"/>
<path d="M641.351 290.778C641.396 291.107 641.486 291.353 641.619 291.516C641.863 291.812 642.282 291.96 642.874 291.96C643.229 291.96 643.517 291.921 643.738 291.843C644.158 291.693 644.368 291.415 644.368 291.008C644.368 290.77 644.264 290.586 644.056 290.456C643.847 290.329 643.52 290.217 643.074 290.119L642.312 289.948C641.564 289.779 641.046 289.595 640.76 289.396C640.275 289.064 640.032 288.545 640.032 287.839C640.032 287.194 640.267 286.659 640.735 286.232C641.204 285.806 641.893 285.593 642.801 285.593C643.559 285.593 644.205 285.795 644.739 286.198C645.276 286.599 645.558 287.181 645.584 287.946H644.139C644.113 287.513 643.924 287.206 643.572 287.023C643.338 286.903 643.047 286.843 642.698 286.843C642.311 286.843 642.002 286.921 641.771 287.077C641.539 287.233 641.424 287.451 641.424 287.731C641.424 287.989 641.538 288.181 641.766 288.308C641.912 288.392 642.225 288.492 642.703 288.605L643.943 288.903C644.487 289.034 644.897 289.208 645.174 289.426C645.604 289.764 645.818 290.254 645.818 290.896C645.818 291.553 645.566 292.1 645.062 292.536C644.56 292.969 643.851 293.186 642.933 293.186C641.995 293.186 641.258 292.972 640.721 292.546C640.184 292.116 639.915 291.527 639.915 290.778H641.351ZM648.919 288.684C648.597 288.684 648.346 288.785 648.167 288.986C647.991 289.188 647.881 289.462 647.835 289.807H649.998C649.975 289.439 649.863 289.16 649.661 288.972C649.463 288.78 649.215 288.684 648.919 288.684ZM648.919 287.536C649.362 287.536 649.76 287.619 650.115 287.785C650.47 287.951 650.763 288.213 650.994 288.571C651.202 288.887 651.338 289.253 651.399 289.67C651.435 289.914 651.45 290.266 651.443 290.725H647.801C647.82 291.258 647.988 291.633 648.304 291.848C648.496 291.981 648.727 292.048 648.997 292.048C649.284 292.048 649.516 291.966 649.695 291.804C649.793 291.716 649.879 291.594 649.954 291.438H651.375C651.339 291.753 651.175 292.074 650.882 292.399C650.426 292.917 649.788 293.176 648.968 293.176C648.291 293.176 647.693 292.958 647.176 292.521C646.658 292.085 646.399 291.376 646.399 290.393C646.399 289.471 646.632 288.765 647.098 288.273C647.566 287.782 648.174 287.536 648.919 287.536ZM656.053 290.339C656.053 289.929 655.958 289.566 655.77 289.25C655.584 288.934 655.281 288.776 654.861 288.776C654.357 288.776 654.01 289.016 653.821 289.494C653.724 289.748 653.675 290.07 653.675 290.461C653.675 291.079 653.839 291.514 654.168 291.765C654.363 291.911 654.594 291.984 654.861 291.984C655.249 291.984 655.543 291.835 655.745 291.535C655.95 291.236 656.053 290.837 656.053 290.339ZM655.262 287.561C655.883 287.561 656.409 287.79 656.839 288.249C657.272 288.708 657.488 289.382 657.488 290.271C657.488 291.208 657.277 291.923 656.854 292.414C656.434 292.906 655.892 293.151 655.228 293.151C654.804 293.151 654.453 293.046 654.173 292.834C654.02 292.717 653.87 292.546 653.724 292.321V295.095H652.347V287.678H653.68V288.464C653.829 288.233 653.989 288.05 654.158 287.917C654.467 287.679 654.835 287.561 655.262 287.561Z" fill="#CBD5E0"/>
<path d="M565.729 290.28H567.556L566.657 287.448L565.729 290.28ZM565.822 285.803H567.521L570.07 293H568.439L567.976 291.521H565.324L564.826 293H563.254L565.822 285.803ZM572.263 287.678V290.886C572.263 291.188 572.299 291.416 572.37 291.569C572.497 291.84 572.746 291.975 573.117 291.975C573.592 291.975 573.918 291.783 574.094 291.398C574.185 291.19 574.23 290.915 574.23 290.573V287.678H575.642V293H574.289V292.248C574.276 292.264 574.243 292.313 574.191 292.395C574.139 292.476 574.077 292.548 574.006 292.609C573.788 292.805 573.576 292.938 573.371 293.01C573.169 293.081 572.932 293.117 572.658 293.117C571.87 293.117 571.34 292.834 571.066 292.268C570.913 291.955 570.837 291.494 570.837 290.886V287.678H572.263ZM579.274 291.857C579.6 291.857 579.875 291.735 580.1 291.491C580.324 291.244 580.437 290.852 580.437 290.314C580.437 289.81 580.329 289.426 580.114 289.162C579.903 288.898 579.618 288.767 579.26 288.767C578.771 288.767 578.435 288.996 578.249 289.455C578.151 289.699 578.103 290 578.103 290.358C578.103 290.668 578.155 290.943 578.259 291.184C578.448 291.633 578.786 291.857 579.274 291.857ZM578.928 287.551C579.195 287.551 579.427 287.591 579.626 287.673C579.965 287.813 580.238 288.07 580.446 288.444V287.678H581.799V292.727C581.799 293.413 581.683 293.931 581.452 294.279C581.055 294.878 580.293 295.178 579.167 295.178C578.487 295.178 577.932 295.044 577.502 294.777C577.072 294.51 576.835 294.112 576.789 293.581H578.303C578.342 293.744 578.405 293.861 578.493 293.933C578.643 294.06 578.895 294.123 579.25 294.123C579.751 294.123 580.087 293.955 580.256 293.62C580.367 293.405 580.422 293.044 580.422 292.536V292.194C580.288 292.422 580.145 292.593 579.992 292.707C579.715 292.919 579.356 293.024 578.913 293.024C578.229 293.024 577.683 292.785 577.272 292.307C576.866 291.825 576.662 291.174 576.662 290.354C576.662 289.562 576.859 288.898 577.253 288.361C577.647 287.821 578.205 287.551 578.928 287.551Z" fill="#CBD5E0"/>
<path d="M493.141 290.271V290.437C493.154 290.993 493.214 291.385 493.321 291.613C493.432 291.838 493.666 291.95 494.024 291.95C494.379 291.95 494.614 291.826 494.728 291.579C494.796 291.433 494.83 291.185 494.83 290.837V285.803H496.334V290.812C496.334 291.424 496.228 291.91 496.017 292.268C495.659 292.873 495.012 293.176 494.078 293.176C493.144 293.176 492.517 292.932 492.198 292.443C491.879 291.952 491.72 291.283 491.72 290.437V290.271H493.141ZM499.103 287.678V290.886C499.103 291.188 499.138 291.416 499.21 291.569C499.337 291.84 499.586 291.975 499.957 291.975C500.432 291.975 500.758 291.783 500.934 291.398C501.025 291.19 501.07 290.915 501.07 290.573V287.678H502.481V293H501.129V292.248C501.116 292.264 501.083 292.313 501.031 292.395C500.979 292.476 500.917 292.548 500.846 292.609C500.628 292.805 500.416 292.938 500.211 293.01C500.009 293.081 499.771 293.117 499.498 293.117C498.71 293.117 498.18 292.834 497.906 292.268C497.753 291.955 497.677 291.494 497.677 290.886V287.678H499.103ZM505.25 293H503.858V285.803H505.25V293Z" fill="#CBD5E0"/>
<path d="M418.141 290.271V290.437C418.154 290.993 418.214 291.385 418.321 291.613C418.432 291.838 418.666 291.95 419.024 291.95C419.379 291.95 419.614 291.826 419.728 291.579C419.796 291.433 419.83 291.185 419.83 290.837V285.803H421.334V290.812C421.334 291.424 421.228 291.91 421.017 292.268C420.659 292.873 420.012 293.176 419.078 293.176C418.144 293.176 417.517 292.932 417.198 292.443C416.879 291.952 416.72 291.283 416.72 290.437V290.271H418.141ZM424.103 287.678V290.886C424.103 291.188 424.138 291.416 424.21 291.569C424.337 291.84 424.586 291.975 424.957 291.975C425.432 291.975 425.758 291.783 425.934 291.398C426.025 291.19 426.07 290.915 426.07 290.573V287.678H427.481V293H426.129V292.248C426.116 292.264 426.083 292.313 426.031 292.395C425.979 292.476 425.917 292.548 425.846 292.609C425.628 292.805 425.416 292.938 425.211 293.01C425.009 293.081 424.771 293.117 424.498 293.117C423.71 293.117 423.18 292.834 422.906 292.268C422.753 291.955 422.677 291.494 422.677 290.886V287.678H424.103ZM431.778 287.551C432.328 287.551 432.778 287.696 433.126 287.985C433.478 288.272 433.653 288.749 433.653 289.416V293H432.228V289.763C432.228 289.483 432.19 289.268 432.115 289.118C431.979 288.845 431.718 288.708 431.334 288.708C430.862 288.708 430.538 288.908 430.362 289.309C430.271 289.52 430.226 289.79 430.226 290.119V293H428.839V287.688H430.182V288.464C430.361 288.19 430.53 287.993 430.689 287.873C430.976 287.658 431.339 287.551 431.778 287.551Z" fill="#CBD5E0"/>
<path d="M345.532 285.803H347.695V293H346.294V288.132C346.294 287.992 346.296 287.797 346.299 287.546C346.302 287.292 346.304 287.097 346.304 286.96L344.941 293H343.481L342.129 286.96C342.129 287.097 342.131 287.292 342.134 287.546C342.137 287.797 342.139 287.992 342.139 288.132V293H340.737V285.803H342.925L344.233 291.462L345.532 285.803ZM351.914 290.412C351.826 290.467 351.737 290.513 351.646 290.549C351.558 290.581 351.436 290.612 351.279 290.642L350.967 290.7C350.674 290.752 350.464 290.816 350.337 290.891C350.122 291.018 350.015 291.215 350.015 291.481C350.015 291.719 350.08 291.892 350.21 291.999C350.343 292.103 350.505 292.155 350.693 292.155C350.993 292.155 351.268 292.067 351.519 291.892C351.772 291.716 351.904 291.395 351.914 290.93V290.412ZM351.069 289.763C351.326 289.73 351.51 289.689 351.621 289.641C351.82 289.556 351.919 289.424 351.919 289.245C351.919 289.027 351.842 288.877 351.689 288.796C351.54 288.711 351.318 288.669 351.025 288.669C350.697 288.669 350.464 288.75 350.327 288.913C350.229 289.034 350.164 289.196 350.132 289.401H348.789C348.818 288.936 348.949 288.553 349.18 288.254C349.548 287.785 350.179 287.551 351.074 287.551C351.657 287.551 352.174 287.666 352.627 287.897C353.079 288.129 353.306 288.565 353.306 289.206V291.647C353.306 291.817 353.309 292.022 353.315 292.263C353.325 292.445 353.353 292.569 353.398 292.634C353.444 292.699 353.512 292.753 353.604 292.795V293H352.09C352.048 292.893 352.018 292.792 352.002 292.697C351.986 292.603 351.973 292.495 351.963 292.375C351.771 292.583 351.549 292.761 351.299 292.907C350.999 293.08 350.661 293.166 350.283 293.166C349.801 293.166 349.403 293.029 349.087 292.756C348.774 292.479 348.618 292.089 348.618 291.584C348.618 290.93 348.87 290.456 349.375 290.163C349.652 290.004 350.059 289.89 350.596 289.821L351.069 289.763ZM354.761 294.021L354.937 294.03C355.073 294.037 355.203 294.032 355.327 294.016C355.451 293.999 355.555 293.962 355.64 293.903C355.721 293.848 355.796 293.732 355.864 293.557C355.936 293.381 355.965 293.273 355.952 293.234L353.999 287.678H355.547L356.709 291.604L357.808 287.678H359.287L357.461 292.912C357.109 293.921 356.831 294.546 356.626 294.787C356.421 295.031 356.011 295.153 355.396 295.153C355.272 295.153 355.173 295.152 355.098 295.148C355.023 295.148 354.91 295.144 354.761 295.134V294.021Z" fill="#CBD5E0"/>
<path d="M268.229 290.28H270.056L269.157 287.448L268.229 290.28ZM268.322 285.803H270.021L272.57 293H270.939L270.476 291.521H267.824L267.326 293H265.754L268.322 285.803ZM277.043 290.339C277.043 289.929 276.949 289.566 276.76 289.25C276.574 288.934 276.271 288.776 275.852 288.776C275.347 288.776 275 289.016 274.812 289.494C274.714 289.748 274.665 290.07 274.665 290.461C274.665 291.079 274.829 291.514 275.158 291.765C275.354 291.911 275.585 291.984 275.852 291.984C276.239 291.984 276.534 291.835 276.735 291.535C276.94 291.236 277.043 290.837 277.043 290.339ZM276.252 287.561C276.874 287.561 277.399 287.79 277.829 288.249C278.262 288.708 278.479 289.382 278.479 290.271C278.479 291.208 278.267 291.923 277.844 292.414C277.424 292.906 276.882 293.151 276.218 293.151C275.795 293.151 275.443 293.046 275.163 292.834C275.01 292.717 274.86 292.546 274.714 292.321V295.095H273.337V287.678H274.67V288.464C274.82 288.233 274.979 288.05 275.148 287.917C275.458 287.679 275.826 287.561 276.252 287.561ZM282.38 287.551C282.406 287.551 282.427 287.552 282.443 287.556C282.463 287.556 282.504 287.557 282.565 287.561V288.986C282.478 288.977 282.399 288.97 282.331 288.967C282.263 288.964 282.207 288.962 282.165 288.962C281.605 288.962 281.229 289.144 281.037 289.509C280.93 289.714 280.876 290.03 280.876 290.456V293H279.475V287.678H280.803V288.605C281.018 288.251 281.205 288.008 281.364 287.878C281.625 287.66 281.963 287.551 282.38 287.551Z" fill="#CBD5E0"/>
<path d="M196.032 285.803H198.195V293H196.794V288.132C196.794 287.992 196.796 287.797 196.799 287.546C196.802 287.292 196.804 287.097 196.804 286.96L195.441 293H193.981L192.629 286.96C192.629 287.097 192.631 287.292 192.634 287.546C192.637 287.797 192.639 287.992 192.639 288.132V293H191.237V285.803H193.425L194.733 291.462L196.032 285.803ZM202.414 290.412C202.326 290.467 202.237 290.513 202.146 290.549C202.058 290.581 201.936 290.612 201.779 290.642L201.467 290.7C201.174 290.752 200.964 290.816 200.837 290.891C200.622 291.018 200.515 291.215 200.515 291.481C200.515 291.719 200.58 291.892 200.71 291.999C200.843 292.103 201.005 292.155 201.193 292.155C201.493 292.155 201.768 292.067 202.019 291.892C202.272 291.716 202.404 291.395 202.414 290.93V290.412ZM201.569 289.763C201.826 289.73 202.01 289.689 202.121 289.641C202.32 289.556 202.419 289.424 202.419 289.245C202.419 289.027 202.342 288.877 202.189 288.796C202.04 288.711 201.818 288.669 201.525 288.669C201.197 288.669 200.964 288.75 200.827 288.913C200.729 289.034 200.664 289.196 200.632 289.401H199.289C199.318 288.936 199.449 288.553 199.68 288.254C200.048 287.785 200.679 287.551 201.574 287.551C202.157 287.551 202.674 287.666 203.127 287.897C203.579 288.129 203.806 288.565 203.806 289.206V291.647C203.806 291.817 203.809 292.022 203.815 292.263C203.825 292.445 203.853 292.569 203.898 292.634C203.944 292.699 204.012 292.753 204.104 292.795V293H202.59C202.548 292.893 202.518 292.792 202.502 292.697C202.486 292.603 202.473 292.495 202.463 292.375C202.271 292.583 202.049 292.761 201.799 292.907C201.499 293.08 201.161 293.166 200.783 293.166C200.301 293.166 199.903 293.029 199.587 292.756C199.274 292.479 199.118 292.089 199.118 291.584C199.118 290.93 199.37 290.456 199.875 290.163C200.152 290.004 200.559 289.89 201.096 289.821L201.569 289.763ZM207.937 287.551C207.963 287.551 207.984 287.552 208 287.556C208.02 287.556 208.06 287.557 208.122 287.561V288.986C208.034 288.977 207.956 288.97 207.888 288.967C207.819 288.964 207.764 288.962 207.722 288.962C207.162 288.962 206.786 289.144 206.594 289.509C206.486 289.714 206.433 290.03 206.433 290.456V293H205.031V287.678H206.359V288.605C206.574 288.251 206.761 288.008 206.921 287.878C207.181 287.66 207.52 287.551 207.937 287.551Z" fill="#CBD5E0"/>
<path d="M116.262 285.812H121.364V287.077H117.756V288.732H120.915V289.982H117.756V293H116.262V285.812ZM124.362 288.684C124.04 288.684 123.789 288.785 123.61 288.986C123.435 289.188 123.324 289.462 123.278 289.807H125.441C125.419 289.439 125.306 289.16 125.104 288.972C124.906 288.78 124.659 288.684 124.362 288.684ZM124.362 287.536C124.805 287.536 125.204 287.619 125.559 287.785C125.913 287.951 126.206 288.213 126.438 288.571C126.646 288.887 126.781 289.253 126.843 289.67C126.879 289.914 126.893 290.266 126.887 290.725H123.244C123.264 291.258 123.431 291.633 123.747 291.848C123.939 291.981 124.17 292.048 124.44 292.048C124.727 292.048 124.96 291.966 125.139 291.804C125.236 291.716 125.323 291.594 125.397 291.438H126.818C126.783 291.753 126.618 292.074 126.325 292.399C125.869 292.917 125.231 293.176 124.411 293.176C123.734 293.176 123.137 292.958 122.619 292.521C122.102 292.085 121.843 291.376 121.843 290.393C121.843 289.471 122.076 288.765 122.541 288.273C123.01 287.782 123.617 287.536 124.362 287.536ZM130.705 287.561C131.405 287.561 131.952 287.813 132.346 288.317C132.743 288.822 132.941 289.473 132.941 290.271C132.941 291.097 132.746 291.783 132.355 292.326C131.965 292.87 131.42 293.142 130.72 293.142C130.28 293.142 129.927 293.054 129.66 292.878C129.501 292.774 129.328 292.591 129.143 292.331V293H127.78V285.812H129.167V288.371C129.343 288.124 129.536 287.935 129.748 287.805C129.999 287.642 130.318 287.561 130.705 287.561ZM130.349 291.994C130.707 291.994 130.985 291.849 131.184 291.56C131.382 291.27 131.481 290.889 131.481 290.417C131.481 290.039 131.433 289.727 131.335 289.479C131.149 289.011 130.808 288.776 130.31 288.776C129.805 288.776 129.458 289.006 129.27 289.465C129.172 289.709 129.123 290.025 129.123 290.412C129.123 290.868 129.224 291.245 129.426 291.545C129.628 291.844 129.935 291.994 130.349 291.994Z" fill="#CBD5E0"/>
<path d="M42.6406 290.271V290.437C42.6536 290.993 42.7139 291.385 42.8213 291.613C42.932 291.838 43.1663 291.95 43.5244 291.95C43.8792 291.95 44.1136 291.826 44.2275 291.579C44.2959 291.433 44.3301 291.185 44.3301 290.837V285.803H45.834V290.812C45.834 291.424 45.7282 291.91 45.5166 292.268C45.1585 292.873 44.5124 293.176 43.5781 293.176C42.6439 293.176 42.0173 292.932 41.6982 292.443C41.3792 291.952 41.2197 291.283 41.2197 290.437V290.271H42.6406ZM50.1504 290.412C50.0625 290.467 49.973 290.513 49.8818 290.549C49.7939 290.581 49.6719 290.612 49.5156 290.642L49.2031 290.7C48.9102 290.752 48.7002 290.816 48.5732 290.891C48.3584 291.018 48.251 291.215 48.251 291.481C48.251 291.719 48.3161 291.892 48.4463 291.999C48.5798 292.103 48.7409 292.155 48.9297 292.155C49.2292 292.155 49.5042 292.067 49.7549 291.892C50.0088 291.716 50.1406 291.395 50.1504 290.93V290.412ZM49.3057 289.763C49.5628 289.73 49.7467 289.689 49.8574 289.641C50.056 289.556 50.1553 289.424 50.1553 289.245C50.1553 289.027 50.0788 288.877 49.9258 288.796C49.776 288.711 49.5547 288.669 49.2617 288.669C48.9329 288.669 48.7002 288.75 48.5635 288.913C48.4658 289.034 48.4007 289.196 48.3682 289.401H47.0254C47.0547 288.936 47.1849 288.553 47.416 288.254C47.7839 287.785 48.4154 287.551 49.3105 287.551C49.8932 287.551 50.4108 287.666 50.8633 287.897C51.3158 288.129 51.542 288.565 51.542 289.206V291.647C51.542 291.817 51.5452 292.022 51.5518 292.263C51.5615 292.445 51.5892 292.569 51.6348 292.634C51.6803 292.699 51.7487 292.753 51.8398 292.795V293H50.3262C50.2839 292.893 50.2546 292.792 50.2383 292.697C50.222 292.603 50.209 292.495 50.1992 292.375C50.0072 292.583 49.7858 292.761 49.5352 292.907C49.2357 293.08 48.8971 293.166 48.5195 293.166C48.0378 293.166 47.639 293.029 47.3232 292.756C47.0107 292.479 46.8545 292.089 46.8545 291.584C46.8545 290.93 47.1068 290.456 47.6113 290.163C47.888 290.004 48.2949 289.89 48.832 289.821L49.3057 289.763ZM55.7314 287.551C56.2816 287.551 56.7308 287.696 57.0791 287.985C57.4307 288.272 57.6064 288.749 57.6064 289.416V293H56.1807V289.763C56.1807 289.483 56.1432 289.268 56.0684 289.118C55.9316 288.845 55.6712 288.708 55.2871 288.708C54.8151 288.708 54.4912 288.908 54.3154 289.309C54.2243 289.52 54.1787 289.79 54.1787 290.119V293H52.792V287.688H54.1348V288.464C54.3138 288.19 54.4831 287.993 54.6426 287.873C54.929 287.658 55.292 287.551 55.7314 287.551Z" fill="#CBD5E0"/>
<path d="M12.7334 258.028C12.7334 258.842 12.8001 259.465 12.9336 259.898C13.0671 260.328 13.3405 260.543 13.7539 260.543C14.1673 260.543 14.4375 260.328 14.5645 259.898C14.6947 259.465 14.7598 258.842 14.7598 258.028C14.7598 257.175 14.6947 256.544 14.5645 256.134C14.4375 255.724 14.1673 255.519 13.7539 255.519C13.3405 255.519 13.0671 255.724 12.9336 256.134C12.8001 256.544 12.7334 257.175 12.7334 258.028ZM13.7539 254.371C14.6556 254.371 15.2871 254.688 15.6484 255.323C16.013 255.958 16.1953 256.86 16.1953 258.028C16.1953 259.197 16.013 260.097 15.6484 260.729C15.2871 261.36 14.6556 261.676 13.7539 261.676C12.8522 261.676 12.2191 261.36 11.8545 260.729C11.4932 260.097 11.3125 259.197 11.3125 258.028C11.3125 256.86 11.4932 255.958 11.8545 255.323C12.2191 254.688 12.8522 254.371 13.7539 254.371Z" fill="#CBD5E0"/>
<path d="M0.693359 206.617V205.67C1.13281 205.65 1.44043 205.621 1.61621 205.582C1.89616 205.52 2.12402 205.396 2.2998 205.211C2.42025 205.084 2.51139 204.915 2.57324 204.703C2.60905 204.576 2.62695 204.482 2.62695 204.42H3.78418V211.5H2.3584V206.617H0.693359ZM7.2998 208.028C7.2998 208.842 7.36654 209.465 7.5 209.898C7.63346 210.328 7.9069 210.543 8.32031 210.543C8.73372 210.543 9.00391 210.328 9.13086 209.898C9.26107 209.465 9.32617 208.842 9.32617 208.028C9.32617 207.175 9.26107 206.544 9.13086 206.134C9.00391 205.724 8.73372 205.519 8.32031 205.519C7.9069 205.519 7.63346 205.724 7.5 206.134C7.36654 206.544 7.2998 207.175 7.2998 208.028ZM8.32031 204.371C9.22201 204.371 9.85352 204.688 10.2148 205.323C10.5794 205.958 10.7617 206.86 10.7617 208.028C10.7617 209.197 10.5794 210.097 10.2148 210.729C9.85352 211.36 9.22201 211.676 8.32031 211.676C7.41862 211.676 6.78548 211.36 6.4209 210.729C6.05957 210.097 5.87891 209.197 5.87891 208.028C5.87891 206.86 6.05957 205.958 6.4209 205.323C6.78548 204.688 7.41862 204.371 8.32031 204.371ZM12.8662 208.028C12.8662 208.842 12.9329 209.465 13.0664 209.898C13.1999 210.328 13.4733 210.543 13.8867 210.543C14.3001 210.543 14.5703 210.328 14.6973 209.898C14.8275 209.465 14.8926 208.842 14.8926 208.028C14.8926 207.175 14.8275 206.544 14.6973 206.134C14.5703 205.724 14.3001 205.519 13.8867 205.519C13.4733 205.519 13.1999 205.724 13.0664 206.134C12.9329 206.544 12.8662 207.175 12.8662 208.028ZM13.8867 204.371C14.7884 204.371 15.4199 204.688 15.7812 205.323C16.1458 205.958 16.3281 206.86 16.3281 208.028C16.3281 209.197 16.1458 210.097 15.7812 210.729C15.4199 211.36 14.7884 211.676 13.8867 211.676C12.985 211.676 12.3519 211.36 11.9873 210.729C11.626 210.097 11.4453 209.197 11.4453 208.028C11.4453 206.86 11.626 205.958 11.9873 205.323C12.3519 204.688 12.985 204.371 13.8867 204.371Z" fill="#CBD5E0"/>
<path d="M0.3125 161.5C0.325521 160.992 0.43457 160.528 0.639648 160.108C0.838216 159.636 1.30697 159.137 2.0459 158.609C2.68717 158.15 3.10221 157.822 3.29102 157.623C3.58073 157.314 3.72559 156.975 3.72559 156.607C3.72559 156.308 3.64258 156.059 3.47656 155.86C3.31055 155.662 3.07292 155.562 2.76367 155.562C2.34049 155.562 2.05241 155.72 1.89941 156.036C1.81152 156.218 1.75944 156.508 1.74316 156.905H0.390625C0.413411 156.303 0.522461 155.816 0.717773 155.445C1.08887 154.739 1.74805 154.386 2.69531 154.386C3.44401 154.386 4.03971 154.594 4.48242 155.011C4.92513 155.424 5.14648 155.973 5.14648 156.656C5.14648 157.18 4.99023 157.646 4.67773 158.053C4.47266 158.323 4.13574 158.624 3.66699 158.956L3.11035 159.352C2.76204 159.599 2.52279 159.778 2.39258 159.889C2.26562 159.999 2.1582 160.128 2.07031 160.274H5.16113V161.5H0.3125ZM7.2998 158.028C7.2998 158.842 7.36654 159.465 7.5 159.898C7.63346 160.328 7.9069 160.543 8.32031 160.543C8.73372 160.543 9.00391 160.328 9.13086 159.898C9.26107 159.465 9.32617 158.842 9.32617 158.028C9.32617 157.175 9.26107 156.544 9.13086 156.134C9.00391 155.724 8.73372 155.519 8.32031 155.519C7.9069 155.519 7.63346 155.724 7.5 156.134C7.36654 156.544 7.2998 157.175 7.2998 158.028ZM8.32031 154.371C9.22201 154.371 9.85352 154.688 10.2148 155.323C10.5794 155.958 10.7617 156.86 10.7617 158.028C10.7617 159.197 10.5794 160.097 10.2148 160.729C9.85352 161.36 9.22201 161.676 8.32031 161.676C7.41862 161.676 6.78548 161.36 6.4209 160.729C6.05957 160.097 5.87891 159.197 5.87891 158.028C5.87891 156.86 6.05957 155.958 6.4209 155.323C6.78548 154.688 7.41862 154.371 8.32031 154.371ZM12.8662 158.028C12.8662 158.842 12.9329 159.465 13.0664 159.898C13.1999 160.328 13.4733 160.543 13.8867 160.543C14.3001 160.543 14.5703 160.328 14.6973 159.898C14.8275 159.465 14.8926 158.842 14.8926 158.028C14.8926 157.175 14.8275 156.544 14.6973 156.134C14.5703 155.724 14.3001 155.519 13.8867 155.519C13.4733 155.519 13.1999 155.724 13.0664 156.134C12.9329 156.544 12.8662 157.175 12.8662 158.028ZM13.8867 154.371C14.7884 154.371 15.4199 154.688 15.7812 155.323C16.1458 155.958 16.3281 156.86 16.3281 158.028C16.3281 159.197 16.1458 160.097 15.7812 160.729C15.4199 161.36 14.7884 161.676 13.8867 161.676C12.985 161.676 12.3519 161.36 11.9873 160.729C11.626 160.097 11.4453 159.197 11.4453 158.028C11.4453 156.86 11.626 155.958 11.9873 155.323C12.3519 154.688 12.985 154.371 13.8867 154.371Z" fill="#CBD5E0"/>
<path d="M1.63086 109.327C1.63086 109.61 1.67643 109.845 1.76758 110.03C1.93685 110.372 2.24447 110.543 2.69043 110.543C2.96387 110.543 3.2015 110.45 3.40332 110.265C3.6084 110.076 3.71094 109.806 3.71094 109.454C3.71094 108.989 3.52214 108.678 3.14453 108.521C2.92969 108.434 2.59115 108.39 2.12891 108.39V107.394C2.58138 107.387 2.89714 107.343 3.07617 107.262C3.38542 107.125 3.54004 106.848 3.54004 106.432C3.54004 106.161 3.46029 105.942 3.30078 105.772C3.14453 105.603 2.92318 105.519 2.63672 105.519C2.30794 105.519 2.06543 105.623 1.90918 105.831C1.75618 106.039 1.68294 106.318 1.68945 106.666H0.390625C0.403646 106.314 0.463867 105.981 0.571289 105.665C0.685221 105.388 0.864258 105.133 1.1084 104.898C1.29069 104.732 1.50716 104.605 1.75781 104.518C2.00846 104.43 2.31608 104.386 2.68066 104.386C3.35775 104.386 3.90299 104.562 4.31641 104.913C4.73307 105.261 4.94141 105.73 4.94141 106.319C4.94141 106.736 4.81771 107.088 4.57031 107.374C4.41406 107.553 4.2513 107.675 4.08203 107.74C4.20898 107.74 4.39128 107.849 4.62891 108.067C4.98372 108.396 5.16113 108.845 5.16113 109.415C5.16113 110.014 4.9528 110.541 4.53613 110.997C4.12272 111.45 3.50911 111.676 2.69531 111.676C1.69271 111.676 0.996094 111.349 0.605469 110.694C0.400391 110.346 0.286458 109.89 0.263672 109.327H1.63086ZM7.2998 108.028C7.2998 108.842 7.36654 109.465 7.5 109.898C7.63346 110.328 7.9069 110.543 8.32031 110.543C8.73372 110.543 9.00391 110.328 9.13086 109.898C9.26107 109.465 9.32617 108.842 9.32617 108.028C9.32617 107.175 9.26107 106.544 9.13086 106.134C9.00391 105.724 8.73372 105.519 8.32031 105.519C7.9069 105.519 7.63346 105.724 7.5 106.134C7.36654 106.544 7.2998 107.175 7.2998 108.028ZM8.32031 104.371C9.22201 104.371 9.85352 104.688 10.2148 105.323C10.5794 105.958 10.7617 106.86 10.7617 108.028C10.7617 109.197 10.5794 110.097 10.2148 110.729C9.85352 111.36 9.22201 111.676 8.32031 111.676C7.41862 111.676 6.78548 111.36 6.4209 110.729C6.05957 110.097 5.87891 109.197 5.87891 108.028C5.87891 106.86 6.05957 105.958 6.4209 105.323C6.78548 104.688 7.41862 104.371 8.32031 104.371ZM12.8662 108.028C12.8662 108.842 12.9329 109.465 13.0664 109.898C13.1999 110.328 13.4733 110.543 13.8867 110.543C14.3001 110.543 14.5703 110.328 14.6973 109.898C14.8275 109.465 14.8926 108.842 14.8926 108.028C14.8926 107.175 14.8275 106.544 14.6973 106.134C14.5703 105.724 14.3001 105.519 13.8867 105.519C13.4733 105.519 13.1999 105.724 13.0664 106.134C12.9329 106.544 12.8662 107.175 12.8662 108.028ZM13.8867 104.371C14.7884 104.371 15.4199 104.688 15.7812 105.323C16.1458 105.958 16.3281 106.86 16.3281 108.028C16.3281 109.197 16.1458 110.097 15.7812 110.729C15.4199 111.36 14.7884 111.676 13.8867 111.676C12.985 111.676 12.3519 111.36 11.9873 110.729C11.626 110.097 11.4453 109.197 11.4453 108.028C11.4453 106.86 11.626 105.958 11.9873 105.323C12.3519 104.688 12.985 104.371 13.8867 104.371Z" fill="#CBD5E0"/>
<path d="M5.22949 59.9766H4.42871V61.5H3.06641V59.9766H0.263672V58.7607L2.86621 54.4639H4.42871V58.8877H5.22949V59.9766ZM3.06641 58.8877V55.8311L1.29395 58.8877H3.06641ZM7.2998 58.0283C7.2998 58.8421 7.36654 59.4655 7.5 59.8984C7.63346 60.3281 7.9069 60.543 8.32031 60.543C8.73372 60.543 9.00391 60.3281 9.13086 59.8984C9.26107 59.4655 9.32617 58.8421 9.32617 58.0283C9.32617 57.1755 9.26107 56.5439 9.13086 56.1338C9.00391 55.7236 8.73372 55.5186 8.32031 55.5186C7.9069 55.5186 7.63346 55.7236 7.5 56.1338C7.36654 56.5439 7.2998 57.1755 7.2998 58.0283ZM8.32031 54.3711C9.22201 54.3711 9.85352 54.6885 10.2148 55.3232C10.5794 55.958 10.7617 56.8597 10.7617 58.0283C10.7617 59.1969 10.5794 60.097 10.2148 60.7285C9.85352 61.36 9.22201 61.6758 8.32031 61.6758C7.41862 61.6758 6.78548 61.36 6.4209 60.7285C6.05957 60.097 5.87891 59.1969 5.87891 58.0283C5.87891 56.8597 6.05957 55.958 6.4209 55.3232C6.78548 54.6885 7.41862 54.3711 8.32031 54.3711ZM12.8662 58.0283C12.8662 58.8421 12.9329 59.4655 13.0664 59.8984C13.1999 60.3281 13.4733 60.543 13.8867 60.543C14.3001 60.543 14.5703 60.3281 14.6973 59.8984C14.8275 59.4655 14.8926 58.8421 14.8926 58.0283C14.8926 57.1755 14.8275 56.5439 14.6973 56.1338C14.5703 55.7236 14.3001 55.5186 13.8867 55.5186C13.4733 55.5186 13.1999 55.7236 13.0664 56.1338C12.9329 56.5439 12.8662 57.1755 12.8662 58.0283ZM13.8867 54.3711C14.7884 54.3711 15.4199 54.6885 15.7812 55.3232C16.1458 55.958 16.3281 56.8597 16.3281 58.0283C16.3281 59.1969 16.1458 60.097 15.7812 60.7285C15.4199 61.36 14.7884 61.6758 13.8867 61.6758C12.985 61.6758 12.3519 61.36 11.9873 60.7285C11.626 60.097 11.4453 59.1969 11.4453 58.0283C11.4453 56.8597 11.626 55.958 11.9873 55.3232C12.3519 54.6885 12.985 54.3711 13.8867 54.3711Z" fill="#CBD5E0"/>
<path d="M1.65039 9.60548C1.70573 9.90821 1.81152 10.1426 1.96777 10.3086C2.12402 10.4714 2.35189 10.5527 2.65137 10.5527C2.99642 10.5527 3.25846 10.4323 3.4375 10.1914C3.61979 9.94727 3.71094 9.64128 3.71094 9.27345C3.71094 8.91212 3.6263 8.60776 3.45703 8.36036C3.28776 8.10971 3.02409 7.98438 2.66602 7.98438C2.49674 7.98438 2.35026 8.00554 2.22656 8.04786C2.00846 8.12598 1.84408 8.27084 1.7334 8.48243L0.483398 8.42384L0.981445 4.5127H4.88281V5.69434H1.9873L1.7334 7.2422C1.94824 7.10222 2.11589 7.00945 2.23633 6.96387C2.43815 6.88901 2.68392 6.85157 2.97363 6.85157C3.55957 6.85157 4.07064 7.04851 4.50684 7.44239C4.94303 7.83627 5.16113 8.40919 5.16113 9.16114C5.16113 9.81544 4.95117 10.3997 4.53125 10.9141C4.11133 11.4284 3.48307 11.6856 2.64648 11.6856C1.97266 11.6856 1.41927 11.5049 0.986328 11.1436C0.553385 10.7822 0.3125 10.2695 0.263672 9.60548H1.65039ZM7.2998 8.02833C7.2998 8.84213 7.36654 9.4655 7.5 9.89845C7.63346 10.3281 7.9069 10.543 8.32031 10.543C8.73372 10.543 9.00391 10.3281 9.13086 9.89845C9.26107 9.4655 9.32617 8.84213 9.32617 8.02833C9.32617 7.17546 9.26107 6.54395 9.13086 6.1338C9.00391 5.72364 8.73372 5.51856 8.32031 5.51856C7.9069 5.51856 7.63346 5.72364 7.5 6.1338C7.36654 6.54395 7.2998 7.17546 7.2998 8.02833ZM8.32031 4.3711C9.22201 4.3711 9.85352 4.68848 10.2148 5.32325C10.5794 5.95802 10.7617 6.85971 10.7617 8.02833C10.7617 9.19695 10.5794 10.097 10.2148 10.7285C9.85352 11.36 9.22201 11.6758 8.32031 11.6758C7.41862 11.6758 6.78548 11.36 6.4209 10.7285C6.05957 10.097 5.87891 9.19695 5.87891 8.02833C5.87891 6.85971 6.05957 5.95802 6.4209 5.32325C6.78548 4.68848 7.41862 4.3711 8.32031 4.3711ZM12.8662 8.02833C12.8662 8.84213 12.9329 9.4655 13.0664 9.89845C13.1999 10.3281 13.4733 10.543 13.8867 10.543C14.3001 10.543 14.5703 10.3281 14.6973 9.89845C14.8275 9.4655 14.8926 8.84213 14.8926 8.02833C14.8926 7.17546 14.8275 6.54395 14.6973 6.1338C14.5703 5.72364 14.3001 5.51856 13.8867 5.51856C13.4733 5.51856 13.1999 5.72364 13.0664 6.1338C12.9329 6.54395 12.8662 7.17546 12.8662 8.02833ZM13.8867 4.3711C14.7884 4.3711 15.4199 4.68848 15.7812 5.32325C16.1458 5.95802 16.3281 6.85971 16.3281 8.02833C16.3281 9.19695 16.1458 10.097 15.7812 10.7285C15.4199 11.36 14.7884 11.6758 13.8867 11.6758C12.985 11.6758 12.3519 11.36 11.9873 10.7285C11.626 10.097 11.4453 9.19695 11.4453 8.02833C11.4453 6.85971 11.626 5.95802 11.9873 5.32325C12.3519 4.68848 12.985 4.3711 13.8867 4.3711Z" fill="#CBD5E0"/>
<line x1="41.5" y1="257.5" x2="880.5" y2="257.5" stroke="#E2E8F0" stroke-linecap="round" stroke-linejoin="round" stroke-dasharray="3.5 3.5"/>
<line x1="41.5" y1="207.5" x2="880.5" y2="207.5" stroke="#E2E8F0" stroke-linecap="round" stroke-linejoin="round" stroke-dasharray="3.5 3.5"/>
<line x1="41.5" y1="157.5" x2="880.5" y2="157.5" stroke="#E2E8F0" stroke-linecap="round" stroke-linejoin="round" stroke-dasharray="3.5 3.5"/>
<line x1="41.5" y1="107.5" x2="880.5" y2="107.5" stroke="#E2E8F0" stroke-linecap="round" stroke-linejoin="round" stroke-dasharray="3.5 3.5"/>
<line x1="41.5" y1="57.5" x2="880.5" y2="57.5001" stroke="#E2E8F0" stroke-linecap="round" stroke-linejoin="round" stroke-dasharray="3.5 3.5"/>
<line x1="41.5" y1="7.5" x2="880.5" y2="7.50007" stroke="#E2E8F0" stroke-linecap="round" stroke-linejoin="round" stroke-dasharray="3.5 3.5"/>
<path d="M766.203 177.545C809.811 164.448 860.904 183.003 881 193.917V257.75H41V7.99999C83.2009 15.4922 110.33 77.0946 117.112 116.22C122.644 148.132 122.89 170.886 152.28 177.545C181.827 184.24 216.859 162.936 246.5 134.077C270.213 110.99 305.615 124.457 320.352 134.077C346.476 150.819 389.51 162.172 424.074 145.079C467.28 123.713 491.144 129.817 545.653 145.079C600.163 160.341 594.636 170.053 640.103 193.917C685.569 217.781 711.694 193.917 766.203 177.545Z" fill="url(#paint0_linear_370_7029)"/>
<path d="M881 193.917C860.904 183.003 809.811 164.448 766.203 177.545C711.694 193.917 685.569 217.781 640.103 193.917C594.636 170.053 600.163 160.341 545.653 145.079C491.144 129.817 467.28 123.713 424.074 145.079C389.51 162.172 346.476 150.819 320.352 134.077C305.615 124.457 270.213 110.99 246.5 134.077C216.859 162.936 181.827 184.24 152.28 177.545C122.89 170.886 122.644 148.132 117.112 116.22C110.33 77.0946 83.201 15.4922 41 7.99999" stroke="#2D3748" stroke-width="3"/>
<path d="M154.914 150.457C111.642 137.369 60.9412 155.91 41 166.817V257.5H880V42.9074C838.123 50.3941 802.55 48.4527 795.82 87.5498C790.331 119.438 790.087 142.175 760.923 148.83C731.603 155.52 714.559 116.387 685.146 87.5498C661.615 64.4798 621.986 94.5 607.362 104.113C581.439 120.842 522.507 84.3408 496.967 55.648C460.5 14.6781 412.543 10.9308 376.323 55.648C340.104 100.365 304.178 63.7034 259.061 87.5498C213.944 111.396 209.005 166.817 154.914 150.457Z" fill="url(#paint1_linear_370_7029)"/>
<path d="M41 167C60.9412 156.08 111.642 137.515 154.914 150.619C209.005 167 213.944 111.509 259.061 87.6318C304.178 63.7549 340.104 100.464 376.323 55.6892C412.543 10.9147 460.5 14.6668 496.967 55.6892C522.507 84.4187 581.439 120.967 607.362 104.216C621.986 94.5909 661.615 64.5322 685.146 87.6318C714.559 116.506 731.603 155.689 760.923 148.99C790.087 142.327 790.331 119.56 795.82 87.6318C802.55 48.4846 838.123 50.4286 880 42.9323" stroke="#4FD1C5" stroke-width="3"/>
<defs>
<linearGradient id="paint0_linear_370_7029" x1="461" y1="7.99999" x2="461" y2="257.75" gradientUnits="userSpaceOnUse">
<stop stop-color="#2D3748" stop-opacity="0.36"/>
<stop offset="1" stop-color="#2D3748" stop-opacity="0"/>
</linearGradient>
<linearGradient id="paint1_linear_370_7029" x1="460.5" y1="23.5" x2="460.5" y2="257.5" gradientUnits="userSpaceOnUse">
<stop stop-color="#4FD1C5" stop-opacity="0.54"/>
<stop offset="1" stop-color="#4FD1C5" stop-opacity="0"/>
</linearGradient>
</defs>
</svg>
