<svg width="935" height="456" viewBox="0 0 935 456" fill="none" xmlns="http://www.w3.org/2000/svg">
<g filter="url(#filter0_d_370_7022)">
<rect x="5.5" y="2.00001" width="924" height="445" rx="15" fill="white"/>
</g>
<path d="M28.3253 76V74.4489L31.9496 71.093C32.2578 70.7947 32.5163 70.5263 32.7251 70.2876C32.9373 70.049 33.098 69.8153 33.2074 69.5866C33.3168 69.3546 33.3714 69.1044 33.3714 68.8359C33.3714 68.5376 33.3035 68.2808 33.1676 68.0653C33.0317 67.8466 32.8461 67.6792 32.6108 67.5632C32.3755 67.4439 32.1087 67.3842 31.8104 67.3842C31.4988 67.3842 31.227 67.4472 30.995 67.5732C30.763 67.6991 30.584 67.8797 30.4581 68.1151C30.3321 68.3504 30.2692 68.6304 30.2692 68.9553H28.2259C28.2259 68.2891 28.3767 67.7107 28.6783 67.2202C28.9799 66.7296 29.4025 66.3501 29.946 66.0817C30.4896 65.8132 31.116 65.679 31.8253 65.679C32.5545 65.679 33.1892 65.8082 33.7294 66.0668C34.273 66.322 34.6956 66.6766 34.9972 67.1307C35.2988 67.5848 35.4496 68.1051 35.4496 68.6918C35.4496 69.0762 35.3733 69.4557 35.2209 69.8303C35.0717 70.2048 34.8049 70.6207 34.4205 71.0781C34.036 71.5322 33.4941 72.0774 32.7947 72.7138L31.3082 74.1705V74.2401H35.5838V76H28.3253ZM41.1358 76.2237C40.2807 76.2204 39.5449 76.0099 38.9284 75.5923C38.3153 75.1747 37.843 74.5698 37.5115 73.7777C37.1834 72.9856 37.021 72.0327 37.0243 70.919C37.0243 69.8087 37.1884 68.8625 37.5165 68.0803C37.848 67.2981 38.3203 66.7031 38.9334 66.2955C39.5499 65.8845 40.284 65.679 41.1358 65.679C41.9876 65.679 42.7201 65.8845 43.3333 66.2955C43.9498 66.7064 44.4237 67.303 44.7552 68.0852C45.0866 68.8641 45.2507 69.8087 45.2473 70.919C45.2473 72.036 45.0816 72.9905 44.7502 73.7827C44.4221 74.5748 43.9514 75.1797 43.3382 75.5973C42.7251 76.0149 41.9909 76.2237 41.1358 76.2237ZM41.1358 74.4389C41.7192 74.4389 42.1848 74.1456 42.5328 73.5589C42.8809 72.9723 43.0532 72.0923 43.0499 70.919C43.0499 70.1468 42.9703 69.5038 42.8113 68.9901C42.6555 68.4763 42.4334 68.0902 42.1451 67.8317C41.86 67.5732 41.5236 67.4439 41.1358 67.4439C40.5558 67.4439 40.0918 67.7339 39.7438 68.3139C39.3958 68.8939 39.2201 69.7623 39.2168 70.919C39.2168 71.7012 39.2947 72.3542 39.4505 72.8778C39.6096 73.3982 39.8333 73.7893 40.1216 74.0511C40.41 74.3097 40.748 74.4389 41.1358 74.4389ZM46.7823 76V74.4489L50.4066 71.093C50.7148 70.7947 50.9734 70.5263 51.1822 70.2876C51.3943 70.049 51.555 69.8153 51.6644 69.5866C51.7738 69.3546 51.8285 69.1044 51.8285 68.8359C51.8285 68.5376 51.7605 68.2808 51.6246 68.0653C51.4888 67.8466 51.3032 67.6792 51.0678 67.5632C50.8325 67.4439 50.5657 67.3842 50.2674 67.3842C49.9558 67.3842 49.6841 67.4472 49.4521 67.5732C49.2201 67.6991 49.0411 67.8797 48.9151 68.1151C48.7892 68.3504 48.7262 68.6304 48.7262 68.9553H46.6829C46.6829 68.2891 46.8337 67.7107 47.1353 67.2202C47.4369 66.7296 47.8595 66.3501 48.4031 66.0817C48.9466 65.8132 49.573 65.679 50.2823 65.679C51.0115 65.679 51.6462 65.8082 52.1864 66.0668C52.73 66.322 53.1526 66.6766 53.4542 67.1307C53.7558 67.5848 53.9066 68.1051 53.9066 68.6918C53.9066 69.0762 53.8304 69.4557 53.6779 69.8303C53.5288 70.2048 53.262 70.6207 52.8775 71.0781C52.493 71.5322 51.9511 72.0774 51.2518 72.7138L49.7653 74.1705V74.2401H54.0408V76H46.7823ZM59.3642 76.1392C58.6217 76.1392 57.9605 76.0116 57.3805 75.7564C56.8038 75.4979 56.3481 75.1432 56.0133 74.6925C55.6819 74.2384 55.5112 73.7147 55.5012 73.1214H57.6689C57.6821 73.37 57.7633 73.5888 57.9125 73.7777C58.0649 73.9633 58.2671 74.1075 58.519 74.2102C58.7709 74.313 59.0543 74.3643 59.3691 74.3643C59.6973 74.3643 59.9873 74.3063 60.2392 74.1903C60.4911 74.0743 60.6883 73.9136 60.8308 73.7081C60.9733 73.5026 61.0446 73.2656 61.0446 72.9972C61.0446 72.7254 60.9683 72.4851 60.8159 72.2763C60.6667 72.0642 60.4513 71.8984 60.1696 71.7791C59.8912 71.6598 59.5597 71.6001 59.1753 71.6001H58.2257V70.0192H59.1753C59.5001 70.0192 59.7868 69.9628 60.0353 69.8501C60.2872 69.7375 60.4828 69.5817 60.622 69.3828C60.7612 69.1806 60.8308 68.9453 60.8308 68.6768C60.8308 68.4216 60.7695 68.1979 60.6468 68.0057C60.5275 67.8101 60.3585 67.6577 60.1397 67.5483C59.9243 67.4389 59.6724 67.3842 59.3841 67.3842C59.0924 67.3842 58.8256 67.4373 58.5836 67.5433C58.3417 67.6461 58.1478 67.7936 58.002 67.9858C57.8561 68.178 57.7782 68.4034 57.7683 68.6619H55.7051C55.715 68.0753 55.8824 67.5582 56.2072 67.1108C56.532 66.6634 56.9695 66.3137 57.5197 66.0618C58.0732 65.8066 58.698 65.679 59.394 65.679C60.0967 65.679 60.7115 65.8066 61.2385 66.0618C61.7655 66.317 62.1748 66.6617 62.4664 67.0959C62.7614 67.5268 62.9073 68.0107 62.9039 68.5476C62.9073 69.1177 62.7299 69.5933 62.372 69.9744C62.0173 70.3556 61.555 70.5975 60.9849 70.7003V70.7798C61.734 70.8759 62.304 71.1361 62.6951 71.5604C63.0896 71.9813 63.2851 72.5083 63.2818 73.1413C63.2851 73.7214 63.1177 74.2367 62.7797 74.6875C62.4449 75.1383 61.9825 75.4929 61.3926 75.7514C60.8026 76.0099 60.1265 76.1392 59.3642 76.1392ZM69.3968 78.8636C69.1284 78.8636 68.8765 78.8421 68.6412 78.799C68.4092 78.7592 68.2169 78.7079 68.0645 78.6449L68.5417 77.0639C68.7903 77.1402 69.014 77.1816 69.2129 77.1882C69.4151 77.1948 69.5891 77.1484 69.7349 77.049C69.8841 76.9496 70.005 76.7805 70.0978 76.5419L70.2221 76.2188L67.4828 68.3636H69.7101L71.291 73.9716H71.3706L72.9664 68.3636H75.2086L72.2406 76.8253C72.0981 77.2363 71.9042 77.5942 71.6589 77.8991C71.417 78.2074 71.1104 78.4444 70.7392 78.6101C70.368 78.7791 69.9205 78.8636 69.3968 78.8636ZM76.2924 76V68.3636H78.4103V76H76.2924ZM77.3564 67.3793C77.0415 67.3793 76.7714 67.2749 76.546 67.066C76.3239 66.8539 76.2129 66.6004 76.2129 66.3054C76.2129 66.0137 76.3239 65.7635 76.546 65.5547C76.7714 65.3426 77.0415 65.2365 77.3564 65.2365C77.6712 65.2365 77.9397 65.3426 78.1618 65.5547C78.3871 65.7635 78.4998 66.0137 78.4998 66.3054C78.4998 66.6004 78.3871 66.8539 78.1618 67.066C77.9397 67.2749 77.6712 67.3793 77.3564 67.3793ZM82.2248 65.8182V76H80.1069V65.8182H82.2248ZM87.3617 79.0227C86.6756 79.0227 86.0873 78.9283 85.5968 78.7393C85.1096 78.5537 84.7218 78.3002 84.4334 77.9787C84.1451 77.6572 83.9578 77.2959 83.8716 76.8949L85.8304 76.6314C85.8901 76.7839 85.9846 76.9264 86.1138 77.0589C86.2431 77.1915 86.4138 77.2976 86.6259 77.3771C86.8413 77.46 87.1032 77.5014 87.4114 77.5014C87.8721 77.5014 88.2516 77.3887 88.5499 77.1634C88.8515 76.9413 89.0023 76.5684 89.0023 76.0447V74.6477H88.9128C88.82 74.8598 88.6808 75.0604 88.4952 75.2493C88.3096 75.4382 88.071 75.5923 87.7793 75.7116C87.4876 75.831 87.1396 75.8906 86.7353 75.8906C86.1619 75.8906 85.6399 75.758 85.1692 75.4929C84.7019 75.2244 84.329 74.8151 84.0506 74.2649C83.7755 73.7114 83.638 73.0121 83.638 72.1669C83.638 71.3018 83.7788 70.5793 84.0606 69.9993C84.3423 69.4193 84.7168 68.9851 85.1841 68.6967C85.6548 68.4084 86.1702 68.2642 86.7303 68.2642C87.1579 68.2642 87.5158 68.3371 87.8042 68.483C88.0925 68.6255 88.3245 68.8045 88.5002 69.0199C88.6792 69.232 88.8167 69.4408 88.9128 69.6463H88.9924V68.3636H91.0954V76.0746C91.0954 76.7242 90.9363 77.2678 90.6181 77.7053C90.2999 78.1428 89.8591 78.4709 89.2956 78.6896C88.7355 78.9117 88.0909 79.0227 87.3617 79.0227ZM87.4064 74.2997C87.7478 74.2997 88.0362 74.2152 88.2715 74.0462C88.5101 73.8738 88.6924 73.6286 88.8184 73.3104C88.9476 72.9889 89.0123 72.6044 89.0123 72.157C89.0123 71.7095 88.9493 71.3217 88.8233 70.9936C88.6974 70.6622 88.5151 70.4053 88.2765 70.223C88.0378 70.0407 87.7478 69.9496 87.4064 69.9496C87.0584 69.9496 86.7651 70.044 86.5265 70.233C86.2878 70.4186 86.1072 70.6771 85.9846 71.0085C85.8619 71.34 85.8006 71.7228 85.8006 72.157C85.8006 72.5978 85.8619 72.9789 85.9846 73.3004C86.1105 73.6186 86.2911 73.8655 86.5265 74.0412C86.7651 74.2135 87.0584 74.2997 87.4064 74.2997ZM94.9583 76.1442C94.4711 76.1442 94.0369 76.0597 93.6557 75.8906C93.2746 75.7183 92.973 75.4647 92.7509 75.13C92.5321 74.7919 92.4228 74.371 92.4228 73.8672C92.4228 73.4429 92.5007 73.0866 92.6564 72.7983C92.8122 72.5099 93.0243 72.2779 93.2928 72.1023C93.5613 71.9266 93.8662 71.794 94.2076 71.7045C94.5523 71.6151 94.9135 71.5521 95.2914 71.5156C95.7355 71.4692 96.0935 71.4261 96.3652 71.3864C96.637 71.3433 96.8342 71.2803 96.9569 71.1974C97.0795 71.1146 97.1408 70.992 97.1408 70.8295V70.7997C97.1408 70.4848 97.0414 70.2412 96.8425 70.0689C96.647 69.8965 96.3686 69.8104 96.0073 69.8104C95.6261 69.8104 95.3229 69.8949 95.0975 70.0639C94.8721 70.2296 94.723 70.4384 94.65 70.6903L92.6912 70.5312C92.7907 70.0672 92.9862 69.6662 93.2779 69.3281C93.5696 68.9867 93.9457 68.7249 94.4064 68.5426C94.8705 68.357 95.4074 68.2642 96.0172 68.2642C96.4415 68.2642 96.8475 68.3139 97.2353 68.4134C97.6264 68.5128 97.9727 68.6669 98.2743 68.8757C98.5793 69.0845 98.8196 69.353 98.9952 69.6811C99.1709 70.0059 99.2587 70.3954 99.2587 70.8494V76H97.2502V74.9411H97.1905C97.0679 75.1797 96.9038 75.3902 96.6983 75.5724C96.4928 75.7514 96.2459 75.8923 95.9576 75.995C95.6692 76.0945 95.3361 76.1442 94.9583 76.1442ZM95.5648 74.6825C95.8764 74.6825 96.1515 74.6212 96.3901 74.4986C96.6287 74.3726 96.816 74.2036 96.9519 73.9915C97.0878 73.7794 97.1557 73.5391 97.1557 73.2706V72.4602C97.0894 72.5033 96.9983 72.5431 96.8823 72.5795C96.7696 72.6127 96.642 72.6442 96.4995 72.674C96.357 72.7005 96.2144 72.7254 96.0719 72.7486C95.9294 72.7685 95.8001 72.7867 95.6841 72.8033C95.4356 72.8397 95.2185 72.8977 95.0329 72.9773C94.8472 73.0568 94.7031 73.1645 94.6003 73.3004C94.4976 73.433 94.4462 73.5987 94.4462 73.7976C94.4462 74.0859 94.5506 74.3063 94.7594 74.4588C94.9715 74.608 95.24 74.6825 95.5648 74.6825ZM106.26 71.5852V76H104.142V68.3636H106.161V69.7109H106.25C106.419 69.2668 106.702 68.9155 107.1 68.657C107.498 68.3951 107.98 68.2642 108.547 68.2642C109.077 68.2642 109.54 68.3802 109.934 68.6122C110.328 68.8442 110.635 69.1757 110.854 69.6065C111.072 70.0341 111.182 70.5445 111.182 71.1378V76H109.064V71.5156C109.067 71.0483 108.948 70.6837 108.706 70.4219C108.464 70.1567 108.131 70.0241 107.707 70.0241C107.422 70.0241 107.17 70.0855 106.951 70.2081C106.736 70.3307 106.567 70.5097 106.444 70.745C106.325 70.977 106.263 71.2571 106.26 71.5852ZM112.851 76V68.3636H114.969V76H112.851ZM113.915 67.3793C113.6 67.3793 113.33 67.2749 113.105 67.066C112.883 66.8539 112.771 66.6004 112.771 66.3054C112.771 66.0137 112.883 65.7635 113.105 65.5547C113.33 65.3426 113.6 65.2365 113.915 65.2365C114.23 65.2365 114.498 65.3426 114.72 65.5547C114.946 65.7635 115.058 66.0137 115.058 66.3054C115.058 66.6004 114.946 66.8539 114.72 67.066C114.498 67.2749 114.23 67.3793 113.915 67.3793ZM123.019 70.5412L121.08 70.6605C121.047 70.4948 120.976 70.3456 120.866 70.2131C120.757 70.0772 120.613 69.9695 120.434 69.8899C120.258 69.8071 120.048 69.7656 119.803 69.7656C119.474 69.7656 119.198 69.8352 118.972 69.9744C118.747 70.1103 118.634 70.2926 118.634 70.5213C118.634 70.7036 118.707 70.8577 118.853 70.9837C118.999 71.1096 119.249 71.2107 119.604 71.2869L120.986 71.5653C121.728 71.7178 122.282 71.9631 122.646 72.3011C123.011 72.6392 123.193 73.0833 123.193 73.6335C123.193 74.134 123.046 74.5732 122.751 74.951C122.459 75.3288 122.058 75.6238 121.548 75.8359C121.04 76.0447 120.456 76.1491 119.793 76.1491C118.782 76.1491 117.976 75.9387 117.376 75.5178C116.78 75.0935 116.43 74.5168 116.327 73.7876L118.411 73.6783C118.473 73.9865 118.626 74.2218 118.868 74.3842C119.11 74.5433 119.42 74.6229 119.798 74.6229C120.169 74.6229 120.467 74.5516 120.692 74.4091C120.921 74.2633 121.037 74.076 121.04 73.8473C121.037 73.6551 120.956 73.4976 120.797 73.375C120.638 73.2491 120.393 73.1529 120.061 73.0866L118.739 72.8232C117.993 72.674 117.438 72.4155 117.073 72.0476C116.712 71.6797 116.531 71.2107 116.531 70.6406C116.531 70.1501 116.664 69.7275 116.929 69.3729C117.197 69.0182 117.574 68.7448 118.058 68.5526C118.545 68.3603 119.115 68.2642 119.768 68.2642C120.732 68.2642 121.491 68.468 122.045 68.8757C122.602 69.2834 122.926 69.8385 123.019 70.5412ZM124.567 76V65.8182H126.684V69.6463H126.749C126.842 69.4408 126.976 69.232 127.152 69.0199C127.331 68.8045 127.563 68.6255 127.848 68.483C128.136 68.3371 128.494 68.2642 128.922 68.2642C129.479 68.2642 129.992 68.41 130.463 68.7017C130.934 68.9901 131.31 69.4259 131.591 70.0092C131.873 70.5893 132.014 71.3168 132.014 72.1918C132.014 73.0436 131.876 73.7628 131.601 74.3494C131.33 74.9328 130.958 75.3752 130.488 75.6768C130.02 75.9751 129.497 76.1243 128.917 76.1243C128.506 76.1243 128.156 76.0563 127.868 75.9205C127.583 75.7846 127.349 75.6139 127.167 75.4084C126.984 75.1996 126.845 74.9891 126.749 74.777H126.655V76H124.567ZM126.64 72.1818C126.64 72.6359 126.703 73.032 126.829 73.37C126.955 73.7081 127.137 73.9716 127.376 74.1605C127.614 74.3461 127.904 74.4389 128.246 74.4389C128.59 74.4389 128.882 74.3445 129.121 74.1555C129.359 73.9633 129.54 73.6982 129.662 73.3601C129.788 73.0187 129.851 72.6259 129.851 72.1818C129.851 71.741 129.79 71.3532 129.667 71.0185C129.545 70.6837 129.364 70.4219 129.126 70.233C128.887 70.044 128.594 69.9496 128.246 69.9496C127.901 69.9496 127.609 70.0407 127.371 70.223C127.135 70.4053 126.955 70.6638 126.829 70.9986C126.703 71.3333 126.64 71.7277 126.64 72.1818ZM135.605 76.1442C135.118 76.1442 134.683 76.0597 134.302 75.8906C133.921 75.7183 133.619 75.4647 133.397 75.13C133.179 74.7919 133.069 74.371 133.069 73.8672C133.069 73.4429 133.147 73.0866 133.303 72.7983C133.459 72.5099 133.671 72.2779 133.939 72.1023C134.208 71.9266 134.513 71.794 134.854 71.7045C135.199 71.6151 135.56 71.5521 135.938 71.5156C136.382 71.4692 136.74 71.4261 137.012 71.3864C137.284 71.3433 137.481 71.2803 137.603 71.1974C137.726 71.1146 137.787 70.992 137.787 70.8295V70.7997C137.787 70.4848 137.688 70.2412 137.489 70.0689C137.293 69.8965 137.015 69.8104 136.654 69.8104C136.273 69.8104 135.969 69.8949 135.744 70.0639C135.519 70.2296 135.369 70.4384 135.297 70.6903L133.338 70.5312C133.437 70.0672 133.633 69.6662 133.924 69.3281C134.216 68.9867 134.592 68.7249 135.053 68.5426C135.517 68.357 136.054 68.2642 136.664 68.2642C137.088 68.2642 137.494 68.3139 137.882 68.4134C138.273 68.5128 138.619 68.6669 138.921 68.8757C139.226 69.0845 139.466 69.353 139.642 69.6811C139.817 70.0059 139.905 70.3954 139.905 70.8494V76H137.897V74.9411H137.837C137.714 75.1797 137.55 75.3902 137.345 75.5724C137.139 75.7514 136.892 75.8923 136.604 75.995C136.316 76.0945 135.983 76.1442 135.605 76.1442ZM136.211 74.6825C136.523 74.6825 136.798 74.6212 137.037 74.4986C137.275 74.3726 137.462 74.2036 137.598 73.9915C137.734 73.7794 137.802 73.5391 137.802 73.2706V72.4602C137.736 72.5033 137.645 72.5431 137.529 72.5795C137.416 72.6127 137.288 72.6442 137.146 72.674C137.003 72.7005 136.861 72.7254 136.718 72.7486C136.576 72.7685 136.447 72.7867 136.331 72.8033C136.082 72.8397 135.865 72.8977 135.679 72.9773C135.494 73.0568 135.35 73.1645 135.247 73.3004C135.144 73.433 135.093 73.5987 135.093 73.7976C135.093 74.0859 135.197 74.3063 135.406 74.4588C135.618 74.608 135.886 74.6825 136.211 74.6825ZM145.61 68.3636V69.9545H141.011V68.3636H145.61ZM142.055 66.5341H144.173V73.6534C144.173 73.849 144.203 74.0014 144.263 74.1108C144.322 74.2169 144.405 74.2914 144.511 74.3345C144.621 74.3776 144.747 74.3991 144.889 74.3991C144.989 74.3991 145.088 74.3909 145.188 74.3743C145.287 74.3544 145.363 74.3395 145.416 74.3295L145.749 75.9055C145.643 75.9387 145.494 75.9768 145.302 76.0199C145.11 76.0663 144.876 76.0945 144.601 76.1044C144.09 76.1243 143.643 76.0563 143.259 75.9006C142.877 75.7448 142.581 75.5028 142.369 75.1747C142.156 74.8466 142.052 74.4323 142.055 73.9318V66.5341ZM149.167 76.1442C148.68 76.1442 148.246 76.0597 147.865 75.8906C147.484 75.7183 147.182 75.4647 146.96 75.13C146.741 74.7919 146.632 74.371 146.632 73.8672C146.632 73.4429 146.71 73.0866 146.865 72.7983C147.021 72.5099 147.233 72.2779 147.502 72.1023C147.77 71.9266 148.075 71.794 148.417 71.7045C148.761 71.6151 149.123 71.5521 149.5 71.5156C149.944 71.4692 150.302 71.4261 150.574 71.3864C150.846 71.3433 151.043 71.2803 151.166 71.1974C151.288 71.1146 151.35 70.992 151.35 70.8295V70.7997C151.35 70.4848 151.25 70.2412 151.052 70.0689C150.856 69.8965 150.578 69.8104 150.216 69.8104C149.835 69.8104 149.532 69.8949 149.306 70.0639C149.081 70.2296 148.932 70.4384 148.859 70.6903L146.9 70.5312C147 70.0672 147.195 69.6662 147.487 69.3281C147.779 68.9867 148.155 68.7249 148.615 68.5426C149.079 68.357 149.616 68.2642 150.226 68.2642C150.65 68.2642 151.056 68.3139 151.444 68.4134C151.835 68.5128 152.182 68.6669 152.483 68.8757C152.788 69.0845 153.029 69.353 153.204 69.6811C153.38 70.0059 153.468 70.3954 153.468 70.8494V76H151.459V74.9411H151.4C151.277 75.1797 151.113 75.3902 150.907 75.5724C150.702 75.7514 150.455 75.8923 150.167 75.995C149.878 76.0945 149.545 76.1442 149.167 76.1442ZM149.774 74.6825C150.085 74.6825 150.36 74.6212 150.599 74.4986C150.838 74.3726 151.025 74.2036 151.161 73.9915C151.297 73.7794 151.365 73.5391 151.365 73.2706V72.4602C151.298 72.5033 151.207 72.5431 151.091 72.5795C150.979 72.6127 150.851 72.6442 150.708 72.674C150.566 72.7005 150.423 72.7254 150.281 72.7486C150.138 72.7685 150.009 72.7867 149.893 72.8033C149.645 72.8397 149.427 72.8977 149.242 72.9773C149.056 73.0568 148.912 73.1645 148.809 73.3004C148.707 73.433 148.655 73.5987 148.655 73.7976C148.655 74.0859 148.76 74.3063 148.968 74.4588C149.181 74.608 149.449 74.6825 149.774 74.6825ZM157.229 71.5852V76H155.111V68.3636H157.129V69.7109H157.219C157.388 69.2668 157.671 68.9155 158.069 68.657C158.467 68.3951 158.949 68.2642 159.516 68.2642C160.046 68.2642 160.508 68.3802 160.903 68.6122C161.297 68.8442 161.604 69.1757 161.822 69.6065C162.041 70.0341 162.151 70.5445 162.151 71.1378V76H160.033V71.5156C160.036 71.0483 159.917 70.6837 159.675 70.4219C159.433 70.1567 159.1 70.0241 158.675 70.0241C158.39 70.0241 158.139 70.0855 157.92 70.2081C157.704 70.3307 157.535 70.5097 157.413 70.745C157.293 70.977 157.232 71.2571 157.229 71.5852Z" fill="#A0AEC0"/>
<path d="M167.527 70.9091C167.527 69.6761 167.691 68.541 168.02 67.5035C168.351 66.4661 168.856 65.505 169.536 64.62H171.559C171.301 64.9482 171.061 65.3492 170.838 65.8232C170.616 66.2938 170.422 66.8108 170.257 67.3743C170.091 67.9377 169.962 68.5211 169.869 69.1243C169.776 69.7242 169.73 70.3191 169.73 70.9091C169.73 71.6946 169.809 72.4884 169.968 73.2905C170.131 74.0893 170.35 74.8317 170.625 75.5178C170.903 76.2038 171.215 76.7656 171.559 77.2031H169.536C168.856 76.3182 168.351 75.357 168.02 74.3196C167.691 73.2822 167.527 72.1454 167.527 70.9091ZM175.811 74.4489V67.4091H177.591V74.4489H175.811ZM173.181 71.8189V70.0391H180.221V71.8189H173.181ZM182.13 74.2102V72.5149L186.381 65.8182H187.843V68.1648H186.977L184.298 72.4055V72.4851H190.338V74.2102H182.13ZM187.017 76V73.6932L187.057 72.9425V65.8182H189.075V76H187.017ZM195.491 76.1392C194.789 76.1392 194.162 76.0099 193.612 75.7514C193.065 75.4929 192.631 75.1366 192.309 74.6825C191.988 74.2285 191.821 73.7081 191.807 73.1214H193.895C193.919 73.5159 194.084 73.8357 194.393 74.081C194.701 74.3262 195.067 74.4489 195.491 74.4489C195.829 74.4489 196.128 74.3743 196.386 74.2251C196.648 74.0727 196.852 73.8622 196.998 73.5937C197.147 73.322 197.221 73.0104 197.221 72.6591C197.221 72.3011 197.145 71.9863 196.993 71.7145C196.844 71.4427 196.636 71.2306 196.371 71.0781C196.106 70.9257 195.803 70.8478 195.461 70.8445C195.163 70.8445 194.873 70.9058 194.591 71.0284C194.313 71.151 194.096 71.3184 193.94 71.5305L192.026 71.1875L192.508 65.8182H198.733V67.5781H194.283L194.02 70.1286H194.079C194.258 69.8767 194.528 69.6678 194.89 69.5021C195.251 69.3364 195.655 69.2536 196.103 69.2536C196.716 69.2536 197.263 69.3977 197.743 69.6861C198.224 69.9744 198.604 70.3705 198.882 70.8743C199.16 71.3748 199.298 71.9515 199.295 72.6044C199.298 73.2905 199.139 73.9003 198.817 74.4339C198.499 74.9643 198.053 75.3819 197.48 75.6868C196.91 75.9884 196.247 76.1392 195.491 76.1392ZM204.385 70.9091C204.385 72.1454 204.22 73.2822 203.888 74.3196C203.56 75.357 203.056 76.3182 202.377 77.2031H200.354C200.612 76.875 200.852 76.474 201.074 76C201.296 75.526 201.49 75.009 201.656 74.4489C201.822 73.8854 201.951 73.3021 202.044 72.6989C202.137 72.0956 202.183 71.4991 202.183 70.9091C202.183 70.1236 202.102 69.3314 201.939 68.5327C201.78 67.7306 201.562 66.9882 201.283 66.3054C201.008 65.6193 200.698 65.0575 200.354 64.62H202.377C203.056 65.505 203.56 66.4661 203.888 67.5035C204.22 68.541 204.385 69.6761 204.385 70.9091ZM211.704 73.8026L211.709 71.2621H212.017L214.463 68.3636H216.894L213.608 72.2017H213.106L211.704 73.8026ZM209.785 76V65.8182H211.903V76H209.785ZM214.557 76L212.31 72.674L213.722 71.1776L217.038 76H214.557ZM221.069 76.1491C220.297 76.1491 219.629 75.9851 219.065 75.657C218.505 75.3255 218.073 74.8648 217.768 74.2749C217.463 73.6816 217.31 72.9938 217.31 72.2116C217.31 71.4228 217.463 70.7334 217.768 70.1435C218.073 69.5502 218.505 69.0895 219.065 68.7614C219.629 68.4299 220.297 68.2642 221.069 68.2642C221.841 68.2642 222.507 68.4299 223.067 68.7614C223.631 69.0895 224.065 69.5502 224.37 70.1435C224.675 70.7334 224.827 71.4228 224.827 72.2116C224.827 72.9938 224.675 73.6816 224.37 74.2749C224.065 74.8648 223.631 75.3255 223.067 75.657C222.507 75.9851 221.841 76.1491 221.069 76.1491ZM221.079 74.5085C221.43 74.5085 221.724 74.4091 221.959 74.2102C222.194 74.008 222.371 73.733 222.491 73.3849C222.613 73.0369 222.675 72.6409 222.675 72.1967C222.675 71.7526 222.613 71.3565 222.491 71.0085C222.371 70.6605 222.194 70.3854 221.959 70.1832C221.724 69.9811 221.43 69.88 221.079 69.88C220.724 69.88 220.426 69.9811 220.184 70.1832C219.945 70.3854 219.765 70.6605 219.642 71.0085C219.523 71.3565 219.463 71.7526 219.463 72.1967C219.463 72.6409 219.523 73.0369 219.642 73.3849C219.765 73.733 219.945 74.008 220.184 74.2102C220.426 74.4091 220.724 74.5085 221.079 74.5085ZM226.205 78.8636V68.3636H228.293V69.6463H228.387C228.48 69.4408 228.614 69.232 228.79 69.0199C228.969 68.8045 229.201 68.6255 229.486 68.483C229.774 68.3371 230.132 68.2642 230.56 68.2642C231.116 68.2642 231.63 68.41 232.101 68.7017C232.572 68.9901 232.948 69.4259 233.229 70.0092C233.511 70.5893 233.652 71.3168 233.652 72.1918C233.652 73.0436 233.514 73.7628 233.239 74.3494C232.968 74.9328 232.596 75.3752 232.126 75.6768C231.658 75.9751 231.135 76.1243 230.555 76.1243C230.144 76.1243 229.794 76.0563 229.506 75.9205C229.221 75.7846 228.987 75.6139 228.805 75.4084C228.622 75.1996 228.483 74.9891 228.387 74.777H228.322V78.8636H226.205ZM228.278 72.1818C228.278 72.6359 228.341 73.032 228.467 73.37C228.593 73.7081 228.775 73.9716 229.014 74.1605C229.252 74.3461 229.542 74.4389 229.884 74.4389C230.228 74.4389 230.52 74.3445 230.759 74.1555C230.997 73.9633 231.178 73.6982 231.3 73.3601C231.426 73.0187 231.489 72.6259 231.489 72.1818C231.489 71.741 231.428 71.3532 231.305 71.0185C231.183 70.6837 231.002 70.4219 230.764 70.233C230.525 70.044 230.232 69.9496 229.884 69.9496C229.539 69.9496 229.247 70.0407 229.009 70.223C228.773 70.4053 228.593 70.6638 228.467 70.9986C228.341 71.3333 228.278 71.7277 228.278 72.1818ZM235.064 76V68.3636H237.117V69.696H237.197C237.336 69.2221 237.57 68.8641 237.898 68.6222C238.226 68.3769 238.604 68.2543 239.031 68.2543C239.137 68.2543 239.252 68.2609 239.374 68.2741C239.497 68.2874 239.605 68.3056 239.697 68.3288V70.2081C239.598 70.1783 239.46 70.1518 239.285 70.1286C239.109 70.1053 238.948 70.0937 238.803 70.0937C238.491 70.0937 238.213 70.1617 237.967 70.2976C237.725 70.4302 237.533 70.6158 237.391 70.8544C237.251 71.093 237.182 71.3681 237.182 71.6797V76H235.064ZM243.887 76.1491C243.115 76.1491 242.447 75.9851 241.884 75.657C241.324 75.3255 240.891 74.8648 240.586 74.2749C240.281 73.6816 240.129 72.9938 240.129 72.2116C240.129 71.4228 240.281 70.7334 240.586 70.1435C240.891 69.5502 241.324 69.0895 241.884 68.7614C242.447 68.4299 243.115 68.2642 243.887 68.2642C244.66 68.2642 245.326 68.4299 245.886 68.7614C246.449 69.0895 246.883 69.5502 247.188 70.1435C247.493 70.7334 247.646 71.4228 247.646 72.2116C247.646 72.9938 247.493 73.6816 247.188 74.2749C246.883 74.8648 246.449 75.3255 245.886 75.657C245.326 75.9851 244.66 76.1491 243.887 76.1491ZM243.897 74.5085C244.249 74.5085 244.542 74.4091 244.777 74.2102C245.013 74.008 245.19 73.733 245.309 73.3849C245.432 73.0369 245.493 72.6409 245.493 72.1967C245.493 71.7526 245.432 71.3565 245.309 71.0085C245.19 70.6605 245.013 70.3854 244.777 70.1832C244.542 69.9811 244.249 69.88 243.897 69.88C243.543 69.88 243.244 69.9811 243.002 70.1832C242.764 70.3854 242.583 70.6605 242.46 71.0085C242.341 71.3565 242.281 71.7526 242.281 72.1967C242.281 72.6409 242.341 73.0369 242.46 73.3849C242.583 73.733 242.764 74.008 243.002 74.2102C243.244 74.4091 243.543 74.5085 243.897 74.5085ZM254.069 78.8636V74.777H254.004C253.905 74.9891 253.764 75.1996 253.582 75.4084C253.403 75.6139 253.169 75.7846 252.881 75.9205C252.596 76.0563 252.248 76.1243 251.837 76.1243C251.257 76.1243 250.731 75.9751 250.261 75.6768C249.794 75.3752 249.422 74.9328 249.147 74.3494C248.875 73.7628 248.74 73.0436 248.74 72.1918C248.74 71.3168 248.88 70.5893 249.162 70.0092C249.444 69.4259 249.818 68.9901 250.286 68.7017C250.756 68.41 251.272 68.2642 251.832 68.2642C252.259 68.2642 252.616 68.3371 252.901 68.483C253.189 68.6255 253.421 68.8045 253.597 69.0199C253.776 69.232 253.912 69.4408 254.004 69.6463H254.094V68.3636H256.182V78.8636H254.069ZM252.508 74.4389C252.849 74.4389 253.138 74.3461 253.373 74.1605C253.612 73.9716 253.794 73.7081 253.92 73.37C254.049 73.032 254.114 72.6359 254.114 72.1818C254.114 71.7277 254.051 71.3333 253.925 70.9986C253.799 70.6638 253.617 70.4053 253.378 70.223C253.139 70.0407 252.849 69.9496 252.508 69.9496C252.16 69.9496 251.867 70.044 251.628 70.233C251.389 70.4219 251.209 70.6837 251.086 71.0185C250.963 71.3532 250.902 71.741 250.902 72.1818C250.902 72.6259 250.963 73.0187 251.086 73.3601C251.212 73.6982 251.393 73.9633 251.628 74.1555C251.867 74.3445 252.16 74.4389 252.508 74.4389Z" fill="#48BB78"/>
<path d="M34.7393 39.674C34.6882 39.1584 34.4688 38.7578 34.081 38.4723C33.6932 38.1868 33.1669 38.044 32.5021 38.044C32.0504 38.044 31.669 38.108 31.358 38.2358C31.0469 38.3594 30.8082 38.532 30.642 38.7536C30.4801 38.9752 30.3991 39.2266 30.3991 39.5078C30.3906 39.7422 30.4396 39.9467 30.5462 40.1215C30.657 40.2962 30.8082 40.4475 31 40.5753C31.1918 40.6989 31.4134 40.8075 31.6648 40.9013C31.9162 40.9908 32.1847 41.0675 32.4702 41.1314L33.6463 41.4127C34.2173 41.5405 34.7415 41.7109 35.2188 41.924C35.696 42.1371 36.1094 42.3992 36.4588 42.7102C36.8082 43.0213 37.0788 43.3878 37.2706 43.8097C37.4666 44.2315 37.5668 44.7152 37.571 45.2607C37.5668 46.0618 37.3622 46.7564 36.9574 47.3445C36.5568 47.9283 35.9773 48.3821 35.2188 48.706C34.4645 49.0256 33.5547 49.1854 32.4893 49.1854C31.4325 49.1854 30.5121 49.0234 29.728 48.6996C28.9482 48.3757 28.3388 47.8963 27.8999 47.2614C27.4652 46.6222 27.2372 45.8317 27.2159 44.8899H29.8942C29.924 45.3288 30.0497 45.6953 30.2713 45.9894C30.4972 46.2791 30.7976 46.4986 31.1726 46.6477C31.5518 46.7926 31.9801 46.8651 32.4574 46.8651C32.9261 46.8651 33.3331 46.7969 33.6783 46.6605C34.0277 46.5242 34.2983 46.3345 34.4901 46.0916C34.6818 45.8487 34.7777 45.5696 34.7777 45.2543C34.7777 44.9602 34.6903 44.7131 34.5156 44.5128C34.3452 44.3125 34.0938 44.1421 33.7614 44.0014C33.4332 43.8608 33.0305 43.733 32.5533 43.6179L31.1278 43.26C30.0241 42.9915 29.1527 42.5717 28.5135 42.0007C27.8743 41.4297 27.5568 40.6605 27.5611 39.6932C27.5568 38.9006 27.7678 38.2081 28.1939 37.6158C28.6243 37.0234 29.2145 36.5611 29.9645 36.2287C30.7145 35.8963 31.5668 35.7301 32.5213 35.7301C33.4929 35.7301 34.3409 35.8963 35.0653 36.2287C35.794 36.5611 36.3608 37.0234 36.7656 37.6158C37.1705 38.2081 37.3793 38.8942 37.392 39.674H34.7393ZM43.8177 49.1918C42.8248 49.1918 41.9661 48.9808 41.2417 48.559C40.5215 48.1328 39.9654 47.5405 39.5733 46.782C39.1813 46.0192 38.9853 45.135 38.9853 44.1293C38.9853 43.1151 39.1813 42.2287 39.5733 41.4702C39.9654 40.7074 40.5215 40.1151 41.2417 39.6932C41.9661 39.2671 42.8248 39.054 43.8177 39.054C44.8105 39.054 45.6671 39.2671 46.3873 39.6932C47.1117 40.1151 47.6699 40.7074 48.062 41.4702C48.454 42.2287 48.65 43.1151 48.65 44.1293C48.65 45.135 48.454 46.0192 48.062 46.782C47.6699 47.5405 47.1117 48.1328 46.3873 48.559C45.6671 48.9808 44.8105 49.1918 43.8177 49.1918ZM43.8304 47.0824C44.2821 47.0824 44.6593 46.9546 44.9618 46.6989C45.2644 46.4389 45.4924 46.0852 45.6458 45.6378C45.8034 45.1904 45.8823 44.6811 45.8823 44.1101C45.8823 43.5391 45.8034 43.0298 45.6458 42.5824C45.4924 42.135 45.2644 41.7813 44.9618 41.5213C44.6593 41.2614 44.2821 41.1314 43.8304 41.1314C43.3745 41.1314 42.9909 41.2614 42.6799 41.5213C42.373 41.7813 42.1408 42.135 41.9831 42.5824C41.8297 43.0298 41.753 43.5391 41.753 44.1101C41.753 44.6811 41.8297 45.1904 41.9831 45.6378C42.1408 46.0852 42.373 46.4389 42.6799 46.6989C42.9909 46.9546 43.3745 47.0824 43.8304 47.0824ZM55.6429 39.1818V41.2273H49.7303V39.1818H55.6429ZM51.0726 36.8296H53.7956V45.983C53.7956 46.2344 53.834 46.4304 53.9107 46.571C53.9874 46.7074 54.0939 46.8033 54.2303 46.8587C54.3709 46.9141 54.5329 46.9418 54.7161 46.9418C54.8439 46.9418 54.9718 46.9311 55.0996 46.9098C55.2275 46.8842 55.3255 46.8651 55.3936 46.8523L55.8219 48.8786C55.6855 48.9212 55.4938 48.9702 55.2466 49.0256C54.9995 49.0852 54.699 49.1215 54.3454 49.1342C53.6891 49.1598 53.1138 49.0725 52.6195 48.8722C52.1294 48.6719 51.748 48.3608 51.4753 47.9389C51.2026 47.5171 51.0684 46.9844 51.0726 46.3409V36.8296ZM63.7129 44.8196V39.1818H66.4359V49H63.8216V47.2166H63.7193C63.4977 47.7919 63.1291 48.2543 62.6135 48.6037C62.1021 48.9531 61.4778 49.1279 60.7406 49.1279C60.0843 49.1279 59.5069 48.9787 59.0083 48.6804C58.5098 48.3821 58.1199 47.9581 57.8386 47.4084C57.5616 46.8587 57.421 46.2003 57.4167 45.4332V39.1818H60.1397V44.9475C60.144 45.527 60.2995 45.9851 60.6064 46.3217C60.9132 46.6584 61.3244 46.8267 61.84 46.8267C62.1682 46.8267 62.475 46.7521 62.7605 46.603C63.046 46.4496 63.2761 46.2237 63.4508 45.9254C63.6298 45.6271 63.7172 45.2585 63.7129 44.8196ZM77.7674 39.1818L74.3349 49H71.2667L67.8342 39.1818H70.7106L72.7496 46.2067H72.8519L74.8846 39.1818H77.7674ZM81.8839 35.9091V49H79.1609V35.9091H81.8839ZM86.8649 49.1854C86.2385 49.1854 85.6802 49.0767 85.1902 48.8594C84.7001 48.6378 84.3123 48.3118 84.0268 47.8814C83.7456 47.4467 83.6049 46.9056 83.6049 46.2578C83.6049 45.7124 83.7051 45.2543 83.9054 44.8835C84.1057 44.5128 84.3784 44.2145 84.7235 43.9886C85.0687 43.7628 85.4608 43.5923 85.8997 43.4773C86.3429 43.3622 86.8074 43.2813 87.2932 43.2344C87.8642 43.1747 88.3244 43.1193 88.6738 43.0682C89.0233 43.0128 89.2768 42.9318 89.4345 42.8253C89.5922 42.7188 89.671 42.5611 89.671 42.3523V42.3139C89.671 41.9091 89.5432 41.5959 89.2875 41.3743C89.036 41.1527 88.6781 41.0419 88.2136 41.0419C87.7235 41.0419 87.3336 41.1506 87.0439 41.3679C86.7541 41.581 86.5623 41.8494 86.4686 42.1733L83.9501 41.9688C84.078 41.3722 84.3294 40.8565 84.7044 40.4219C85.0794 39.983 85.563 39.6463 86.1554 39.4119C86.752 39.1733 87.4423 39.054 88.2264 39.054C88.7718 39.054 89.2939 39.1179 89.7924 39.2457C90.2953 39.3736 90.7406 39.5717 91.1284 39.8402C91.5204 40.1087 91.8294 40.4538 92.0552 40.8757C92.2811 41.2933 92.394 41.794 92.394 42.3779V49H89.8116V47.6385H89.7349C89.5772 47.9453 89.3663 48.2159 89.1021 48.4503C88.8379 48.6804 88.5204 48.8615 88.1497 48.9936C87.7789 49.1215 87.3507 49.1854 86.8649 49.1854ZM87.6447 47.3061C88.0453 47.3061 88.399 47.2273 88.7058 47.0696C89.0126 46.9077 89.2534 46.6904 89.4281 46.4176C89.6028 46.1449 89.6902 45.8359 89.6902 45.4908V44.4489C89.6049 44.5043 89.4878 44.5554 89.3386 44.6023C89.1937 44.6449 89.0297 44.6854 88.8464 44.7237C88.6632 44.7578 88.4799 44.7898 88.2967 44.8196C88.1135 44.8452 87.9473 44.8686 87.7981 44.8899C87.4785 44.9368 87.1994 45.0114 86.9608 45.1136C86.7221 45.2159 86.5368 45.3544 86.4047 45.5291C86.2726 45.6996 86.2065 45.9127 86.2065 46.1683C86.2065 46.5391 86.3407 46.8225 86.6092 47.0185C86.8819 47.2102 87.2271 47.3061 87.6447 47.3061ZM94.5066 49V39.1818H97.1465V40.8949H97.2488C97.4277 40.2855 97.7282 39.8253 98.15 39.5142C98.5719 39.1989 99.0577 39.0412 99.6074 39.0412C99.7438 39.0412 99.8908 39.0497 100.048 39.0668C100.206 39.0838 100.345 39.1073 100.464 39.1371V41.5533C100.336 41.5149 100.159 41.4808 99.9334 41.451C99.7076 41.4212 99.5009 41.4063 99.3134 41.4063C98.9128 41.4063 98.5549 41.4936 98.2395 41.6683C97.9285 41.8388 97.6813 42.0774 97.4981 42.3842C97.3191 42.6911 97.2296 43.0448 97.2296 43.4453V49H94.5066ZM114.207 41.9815L111.714 42.135C111.671 41.9219 111.58 41.7301 111.439 41.5597C111.298 41.385 111.113 41.2465 110.883 41.1442C110.657 41.0377 110.387 40.9844 110.071 40.9844C109.649 40.9844 109.294 41.0739 109.004 41.2529C108.714 41.4276 108.569 41.6619 108.569 41.956C108.569 42.1904 108.663 42.3885 108.85 42.5504C109.038 42.7124 109.36 42.8423 109.816 42.9404L111.593 43.2983C112.547 43.4943 113.259 43.8097 113.727 44.2443C114.196 44.679 114.431 45.25 114.431 45.9574C114.431 46.6009 114.241 47.1655 113.862 47.6513C113.487 48.1371 112.971 48.5163 112.315 48.7891C111.663 49.0575 110.911 49.1918 110.058 49.1918C108.759 49.1918 107.723 48.9212 106.952 48.38C106.185 47.8345 105.735 47.0931 105.603 46.1556L108.281 46.0149C108.362 46.4112 108.558 46.7138 108.87 46.9226C109.181 47.1271 109.579 47.2294 110.065 47.2294C110.542 47.2294 110.926 47.1378 111.215 46.9546C111.509 46.7671 111.659 46.5263 111.663 46.2323C111.659 45.9851 111.554 45.7827 111.35 45.625C111.145 45.4631 110.83 45.3395 110.404 45.2543L108.703 44.9155C107.745 44.7237 107.031 44.3913 106.562 43.9183C106.097 43.4453 105.865 42.8423 105.865 42.1094C105.865 41.4787 106.036 40.9354 106.377 40.4794C106.722 40.0234 107.205 39.6719 107.828 39.4247C108.454 39.1776 109.187 39.054 110.026 39.054C111.267 39.054 112.242 39.3161 112.954 39.8402C113.67 40.3644 114.088 41.0781 114.207 41.9815ZM121.368 39.1818V41.2273H115.455V39.1818H121.368ZM116.797 36.8296H119.52V45.983C119.52 46.2344 119.559 46.4304 119.635 46.571C119.712 46.7074 119.819 46.8033 119.955 46.8587C120.096 46.9141 120.257 46.9418 120.441 46.9418C120.569 46.9418 120.696 46.9311 120.824 46.9098C120.952 46.8842 121.05 46.8651 121.118 46.8523L121.547 48.8786C121.41 48.9212 121.218 48.9702 120.971 49.0256C120.724 49.0852 120.424 49.1215 120.07 49.1342C119.414 49.1598 118.838 49.0725 118.344 48.8722C117.854 48.6719 117.473 48.3608 117.2 47.9389C116.927 47.5171 116.793 46.9844 116.797 46.3409V36.8296ZM125.941 49.1854C125.315 49.1854 124.756 49.0767 124.266 48.8594C123.776 48.6378 123.389 48.3118 123.103 47.8814C122.822 47.4467 122.681 46.9056 122.681 46.2578C122.681 45.7124 122.781 45.2543 122.982 44.8835C123.182 44.5128 123.455 44.2145 123.8 43.9886C124.145 43.7628 124.537 43.5923 124.976 43.4773C125.419 43.3622 125.884 43.2813 126.369 43.2344C126.94 43.1747 127.401 43.1193 127.75 43.0682C128.099 43.0128 128.353 42.9318 128.511 42.8253C128.668 42.7188 128.747 42.5611 128.747 42.3523V42.3139C128.747 41.9091 128.619 41.5959 128.364 41.3743C128.112 41.1527 127.754 41.0419 127.29 41.0419C126.8 41.0419 126.41 41.1506 126.12 41.3679C125.83 41.581 125.639 41.8494 125.545 42.1733L123.026 41.9688C123.154 41.3722 123.406 40.8565 123.781 40.4219C124.156 39.983 124.639 39.6463 125.232 39.4119C125.828 39.1733 126.518 39.054 127.303 39.054C127.848 39.054 128.37 39.1179 128.869 39.2457C129.371 39.3736 129.817 39.5717 130.205 39.8402C130.597 40.1087 130.906 40.4538 131.131 40.8757C131.357 41.2933 131.47 41.794 131.47 42.3779V49H128.888V47.6385H128.811C128.653 47.9453 128.442 48.2159 128.178 48.4503C127.914 48.6804 127.597 48.8615 127.226 48.9936C126.855 49.1215 126.427 49.1854 125.941 49.1854ZM126.721 47.3061C127.121 47.3061 127.475 47.2273 127.782 47.0696C128.089 46.9077 128.33 46.6904 128.504 46.4176C128.679 46.1449 128.766 45.8359 128.766 45.4908V44.4489C128.681 44.5043 128.564 44.5554 128.415 44.6023C128.27 44.6449 128.106 44.6854 127.923 44.7237C127.739 44.7578 127.556 44.7898 127.373 44.8196C127.19 44.8452 127.023 44.8686 126.874 44.8899C126.555 44.9368 126.276 45.0114 126.037 45.1136C125.798 45.2159 125.613 45.3544 125.481 45.5291C125.349 45.6996 125.283 45.9127 125.283 46.1683C125.283 46.5391 125.417 46.8225 125.685 47.0185C125.958 47.2102 126.303 47.3061 126.721 47.3061ZM138.805 39.1818V41.2273H132.892V39.1818H138.805ZM134.235 36.8296H136.958V45.983C136.958 46.2344 136.996 46.4304 137.073 46.571C137.15 46.7074 137.256 46.8033 137.392 46.8587C137.533 46.9141 137.695 46.9418 137.878 46.9418C138.006 46.9418 138.134 46.9311 138.262 46.9098C138.39 46.8842 138.488 46.8651 138.556 46.8523L138.984 48.8786C138.848 48.9212 138.656 48.9702 138.409 49.0256C138.162 49.0852 137.861 49.1215 137.507 49.1342C136.851 49.1598 136.276 49.0725 135.782 48.8722C135.292 48.6719 134.91 48.3608 134.637 47.9389C134.365 47.5171 134.23 46.9844 134.235 46.3409V36.8296ZM140.579 49V39.1818H143.302V49H140.579ZM141.947 37.9162C141.542 37.9162 141.195 37.782 140.905 37.5135C140.619 37.2408 140.477 36.9148 140.477 36.5355C140.477 36.1605 140.619 35.8388 140.905 35.5703C141.195 35.2976 141.542 35.1612 141.947 35.1612C142.352 35.1612 142.697 35.2976 142.982 35.5703C143.272 35.8388 143.417 36.1605 143.417 36.5355C143.417 36.9148 143.272 37.2408 142.982 37.5135C142.697 37.782 142.352 37.9162 141.947 37.9162ZM153.652 41.9815L151.159 42.135C151.117 41.9219 151.025 41.7301 150.884 41.5597C150.744 41.385 150.558 41.2465 150.328 41.1442C150.102 41.0377 149.832 40.9844 149.517 40.9844C149.095 40.9844 148.739 41.0739 148.449 41.2529C148.159 41.4276 148.014 41.6619 148.014 41.956C148.014 42.1904 148.108 42.3885 148.296 42.5504C148.483 42.7124 148.805 42.8423 149.261 42.9404L151.038 43.2983C151.992 43.4943 152.704 43.8097 153.173 44.2443C153.642 44.679 153.876 45.25 153.876 45.9574C153.876 46.6009 153.686 47.1655 153.307 47.6513C152.932 48.1371 152.416 48.5163 151.76 48.7891C151.108 49.0575 150.356 49.1918 149.504 49.1918C148.204 49.1918 147.169 48.9212 146.397 48.38C145.63 47.8345 145.181 47.0931 145.048 46.1556L147.727 46.0149C147.808 46.4112 148.004 46.7138 148.315 46.9226C148.626 47.1271 149.024 47.2294 149.51 47.2294C149.987 47.2294 150.371 47.1378 150.661 46.9546C150.955 46.7671 151.104 46.5263 151.108 46.2323C151.104 45.9851 150.999 45.7827 150.795 45.625C150.59 45.4631 150.275 45.3395 149.849 45.2543L148.149 44.9155C147.19 44.7237 146.476 44.3913 146.007 43.9183C145.543 43.4453 145.311 42.8423 145.311 42.1094C145.311 41.4787 145.481 40.9354 145.822 40.4794C146.167 40.0234 146.651 39.6719 147.273 39.4247C147.899 39.1776 148.632 39.054 149.472 39.054C150.712 39.054 151.688 39.3161 152.399 39.8402C153.115 40.3644 153.533 41.0781 153.652 41.9815ZM160.813 39.1818V41.2273H154.9V39.1818H160.813ZM156.243 36.8296H158.966V45.983C158.966 46.2344 159.004 46.4304 159.081 46.571C159.157 46.7074 159.264 46.8033 159.4 46.8587C159.541 46.9141 159.703 46.9418 159.886 46.9418C160.014 46.9418 160.142 46.9311 160.27 46.9098C160.397 46.8842 160.495 46.8651 160.564 46.8523L160.992 48.8786C160.855 48.9212 160.664 48.9702 160.417 49.0256C160.169 49.0852 159.869 49.1215 159.515 49.1342C158.859 49.1598 158.284 49.0725 157.789 48.8722C157.299 48.6719 156.918 48.3608 156.645 47.9389C156.373 47.5171 156.238 46.9844 156.243 46.3409V36.8296ZM162.587 49V39.1818H165.31V49H162.587ZM163.955 37.9162C163.55 37.9162 163.202 37.782 162.913 37.5135C162.627 37.2408 162.484 36.9148 162.484 36.5355C162.484 36.1605 162.627 35.8388 162.913 35.5703C163.202 35.2976 163.55 35.1612 163.955 35.1612C164.359 35.1612 164.705 35.2976 164.99 35.5703C165.28 35.8388 165.425 36.1605 165.425 36.5355C165.425 36.9148 165.28 37.2408 164.99 37.5135C164.705 37.782 164.359 37.9162 163.955 37.9162ZM169.958 46.1747L169.965 42.9084H170.361L173.506 39.1818H176.632L172.406 44.1165H171.761L169.958 46.1747ZM167.491 49V35.9091H170.214V49H167.491ZM173.627 49L170.738 44.7237L172.553 42.7997L176.817 49H173.627ZM180.767 49.1854C180.141 49.1854 179.583 49.0767 179.093 48.8594C178.602 48.6378 178.215 48.3118 177.929 47.8814C177.648 47.4467 177.507 46.9056 177.507 46.2578C177.507 45.7124 177.607 45.2543 177.808 44.8835C178.008 44.5128 178.281 44.2145 178.626 43.9886C178.971 43.7628 179.363 43.5923 179.802 43.4773C180.245 43.3622 180.71 43.2813 181.196 43.2344C181.767 43.1747 182.227 43.1193 182.576 43.0682C182.926 43.0128 183.179 42.9318 183.337 42.8253C183.495 42.7188 183.573 42.5611 183.573 42.3523V42.3139C183.573 41.9091 183.446 41.5959 183.19 41.3743C182.938 41.1527 182.58 41.0419 182.116 41.0419C181.626 41.0419 181.236 41.1506 180.946 41.3679C180.656 41.581 180.465 41.8494 180.371 42.1733L177.852 41.9688C177.98 41.3722 178.232 40.8565 178.607 40.4219C178.982 39.983 179.465 39.6463 180.058 39.4119C180.654 39.1733 181.345 39.054 182.129 39.054C182.674 39.054 183.196 39.1179 183.695 39.2457C184.198 39.3736 184.643 39.5717 185.031 39.8402C185.423 40.1087 185.732 40.4538 185.958 40.8757C186.183 41.2933 186.296 41.794 186.296 42.3779V49H183.714V47.6385H183.637C183.48 47.9453 183.269 48.2159 183.004 48.4503C182.74 48.6804 182.423 48.8615 182.052 48.9936C181.681 49.1215 181.253 49.1854 180.767 49.1854ZM181.547 47.3061C181.948 47.3061 182.301 47.2273 182.608 47.0696C182.915 46.9077 183.156 46.6904 183.33 46.4176C183.505 46.1449 183.593 45.8359 183.593 45.4908V44.4489C183.507 44.5043 183.39 44.5554 183.241 44.6023C183.096 44.6449 182.932 44.6854 182.749 44.7237C182.566 44.7578 182.382 44.7898 182.199 44.8196C182.016 44.8452 181.85 44.8686 181.7 44.8899C181.381 44.9368 181.102 45.0114 180.863 45.1136C180.624 45.2159 180.439 45.3544 180.307 45.5291C180.175 45.6996 180.109 45.9127 180.109 46.1683C180.109 46.5391 180.243 46.8225 180.512 47.0185C180.784 47.2102 181.129 47.3061 181.547 47.3061ZM196.578 41.9815L194.085 42.135C194.042 41.9219 193.951 41.7301 193.81 41.5597C193.67 41.385 193.484 41.2465 193.254 41.1442C193.028 41.0377 192.758 40.9844 192.442 40.9844C192.02 40.9844 191.665 41.0739 191.375 41.2529C191.085 41.4276 190.94 41.6619 190.94 41.956C190.94 42.1904 191.034 42.3885 191.221 42.5504C191.409 42.7124 191.731 42.8423 192.187 42.9404L193.964 43.2983C194.918 43.4943 195.63 43.8097 196.099 44.2443C196.567 44.679 196.802 45.25 196.802 45.9574C196.802 46.6009 196.612 47.1655 196.233 47.6513C195.858 48.1371 195.342 48.5163 194.686 48.7891C194.034 49.0575 193.282 49.1918 192.43 49.1918C191.13 49.1918 190.094 48.9212 189.323 48.38C188.556 47.8345 188.106 47.0931 187.974 46.1556L190.653 46.0149C190.734 46.4112 190.93 46.7138 191.241 46.9226C191.552 47.1271 191.95 47.2294 192.436 47.2294C192.913 47.2294 193.297 47.1378 193.586 46.9546C193.881 46.7671 194.03 46.5263 194.034 46.2323C194.03 45.9851 193.925 45.7827 193.721 45.625C193.516 45.4631 193.201 45.3395 192.775 45.2543L191.074 44.9155C190.116 44.7237 189.402 44.3913 188.933 43.9183C188.469 43.4453 188.236 42.8423 188.236 42.1094C188.236 41.4787 188.407 40.9354 188.748 40.4794C189.093 40.0234 189.577 39.6719 190.199 39.4247C190.825 39.1776 191.558 39.054 192.398 39.054C193.638 39.054 194.613 39.3161 195.325 39.8402C196.041 40.3644 196.459 41.0781 196.578 41.9815ZM198.516 49V39.1818H201.239V49H198.516ZM199.884 37.9162C199.479 37.9162 199.132 37.782 198.842 37.5135C198.557 37.2408 198.414 36.9148 198.414 36.5355C198.414 36.1605 198.557 35.8388 198.842 35.5703C199.132 35.2976 199.479 35.1612 199.884 35.1612C200.289 35.1612 200.634 35.2976 200.92 35.5703C201.21 35.8388 201.354 36.1605 201.354 36.5355C201.354 36.9148 201.21 37.2408 200.92 37.5135C200.634 37.782 200.289 37.9162 199.884 37.9162Z" fill="#2D3748"/>
<path d="M894.222 408.053V412.75H895.608C896.318 412.75 896.813 412.4 897.093 411.7C897.246 411.316 897.322 410.859 897.322 410.328C897.322 409.596 897.207 409.034 896.976 408.644C896.748 408.25 896.292 408.053 895.608 408.053H894.222ZM895.862 406.803C896.308 406.809 896.679 406.861 896.976 406.959C897.48 407.125 897.889 407.429 898.201 407.872C898.452 408.23 898.623 408.618 898.714 409.034C898.805 409.451 898.851 409.848 898.851 410.226C898.851 411.183 898.659 411.993 898.274 412.657C897.754 413.552 896.95 414 895.862 414H892.762V406.803H895.862ZM901.976 409.684C901.653 409.684 901.403 409.785 901.224 409.986C901.048 410.188 900.937 410.462 900.892 410.807H903.055C903.032 410.439 902.92 410.16 902.718 409.972C902.519 409.78 902.272 409.684 901.976 409.684ZM901.976 408.536C902.418 408.536 902.817 408.619 903.172 408.785C903.527 408.951 903.82 409.213 904.051 409.571C904.259 409.887 904.394 410.253 904.456 410.67C904.492 410.914 904.507 411.266 904.5 411.725H900.857C900.877 412.258 901.045 412.633 901.36 412.848C901.552 412.981 901.784 413.048 902.054 413.048C902.34 413.048 902.573 412.966 902.752 412.804C902.85 412.716 902.936 412.594 903.011 412.438H904.432C904.396 412.753 904.231 413.074 903.938 413.399C903.483 413.917 902.845 414.176 902.024 414.176C901.347 414.176 900.75 413.958 900.232 413.521C899.715 413.085 899.456 412.376 899.456 411.393C899.456 410.471 899.689 409.765 900.154 409.273C900.623 408.782 901.23 408.536 901.976 408.536ZM908.621 410.587C908.595 410.388 908.528 410.209 908.421 410.05C908.265 409.835 908.022 409.728 907.693 409.728C907.225 409.728 906.904 409.96 906.731 410.426C906.64 410.673 906.595 411.002 906.595 411.412C906.595 411.803 906.64 412.117 906.731 412.354C906.897 412.797 907.21 413.019 907.669 413.019C907.994 413.019 908.226 412.931 908.362 412.755C908.499 412.579 908.582 412.351 908.611 412.071H910.032C910 412.494 909.847 412.895 909.573 413.272C909.137 413.881 908.491 414.186 907.635 414.186C906.779 414.186 906.149 413.932 905.745 413.424C905.341 412.916 905.14 412.257 905.14 411.446C905.14 410.532 905.363 409.82 905.809 409.312C906.255 408.805 906.87 408.551 907.654 408.551C908.322 408.551 908.867 408.701 909.29 409C909.716 409.299 909.969 409.828 910.047 410.587H908.621Z" fill="#CBD5E0"/>
<path d="M816.737 406.803H818.314L821.181 411.827V406.803H822.582V414H821.078L818.139 408.888V414H816.737V406.803ZM826.264 413.019C826.671 413.019 826.983 412.874 827.201 412.584C827.419 412.294 827.528 411.882 827.528 411.349C827.528 410.815 827.419 410.405 827.201 410.118C826.983 409.828 826.671 409.684 826.264 409.684C825.857 409.684 825.543 409.828 825.321 410.118C825.103 410.405 824.994 410.815 824.994 411.349C824.994 411.882 825.103 412.294 825.321 412.584C825.543 412.874 825.857 413.019 826.264 413.019ZM828.988 411.349C828.988 412.13 828.764 412.799 828.314 413.355C827.865 413.909 827.183 414.186 826.269 414.186C825.354 414.186 824.672 413.909 824.223 413.355C823.773 412.799 823.549 412.13 823.549 411.349C823.549 410.58 823.773 409.915 824.223 409.352C824.672 408.788 825.354 408.507 826.269 408.507C827.183 408.507 827.865 408.788 828.314 409.352C828.764 409.915 828.988 410.58 828.988 411.349ZM833.271 408.678H834.765L832.846 414H831.376L829.467 408.678H831.029L832.138 412.604L833.271 408.678Z" fill="#CBD5E0"/>
<path d="M745.945 412.926C746.541 412.926 747.013 412.706 747.361 412.267C747.713 411.827 747.889 411.202 747.889 410.392C747.889 409.584 747.713 408.961 747.361 408.521C747.013 408.079 746.541 407.857 745.945 407.857C745.35 407.857 744.874 408.077 744.52 408.517C744.165 408.956 743.987 409.581 743.987 410.392C743.987 411.202 744.165 411.827 744.52 412.267C744.874 412.706 745.35 412.926 745.945 412.926ZM749.393 410.392C749.393 411.684 749.03 412.674 748.304 413.36C747.76 413.92 746.974 414.2 745.945 414.2C744.917 414.2 744.131 413.92 743.587 413.36C742.858 412.674 742.493 411.684 742.493 410.392C742.493 409.073 742.858 408.084 743.587 407.423C744.131 406.863 744.917 406.583 745.945 406.583C746.974 406.583 747.76 406.863 748.304 407.423C749.03 408.084 749.393 409.073 749.393 410.392ZM753.611 410.587C753.585 410.388 753.519 410.209 753.411 410.05C753.255 409.835 753.012 409.728 752.684 409.728C752.215 409.728 751.894 409.96 751.722 410.426C751.631 410.673 751.585 411.002 751.585 411.412C751.585 411.803 751.631 412.117 751.722 412.354C751.888 412.797 752.2 413.019 752.659 413.019C752.985 413.019 753.216 412.931 753.353 412.755C753.489 412.579 753.572 412.351 753.602 412.071H755.022C754.99 412.494 754.837 412.895 754.563 413.272C754.127 413.881 753.481 414.186 752.625 414.186C751.769 414.186 751.139 413.932 750.735 413.424C750.332 412.916 750.13 412.257 750.13 411.446C750.13 410.532 750.353 409.82 750.799 409.312C751.245 408.805 751.86 408.551 752.645 408.551C753.312 408.551 753.857 408.701 754.28 409C754.707 409.299 754.959 409.828 755.037 410.587H753.611ZM755.452 409.718V408.727H756.194V407.242H757.571V408.727H758.436V409.718H757.571V412.53C757.571 412.748 757.599 412.885 757.654 412.94C757.71 412.993 757.879 413.019 758.162 413.019C758.204 413.019 758.248 413.019 758.294 413.019C758.343 413.015 758.39 413.012 758.436 413.009V414.049L757.776 414.073C757.119 414.096 756.67 413.982 756.429 413.731C756.272 413.572 756.194 413.326 756.194 412.994V409.718H755.452Z" fill="#CBD5E0"/>
<path d="M668.351 411.778C668.396 412.107 668.486 412.353 668.619 412.516C668.863 412.812 669.282 412.96 669.874 412.96C670.229 412.96 670.517 412.921 670.738 412.843C671.158 412.693 671.368 412.415 671.368 412.008C671.368 411.77 671.264 411.586 671.056 411.456C670.847 411.329 670.52 411.217 670.074 411.119L669.312 410.948C668.564 410.779 668.046 410.595 667.76 410.396C667.275 410.064 667.032 409.545 667.032 408.839C667.032 408.194 667.267 407.659 667.735 407.232C668.204 406.806 668.893 406.593 669.801 406.593C670.559 406.593 671.205 406.795 671.739 407.198C672.276 407.599 672.558 408.181 672.584 408.946H671.139C671.113 408.513 670.924 408.206 670.572 408.023C670.338 407.903 670.047 407.843 669.698 407.843C669.311 407.843 669.002 407.921 668.771 408.077C668.539 408.233 668.424 408.451 668.424 408.731C668.424 408.989 668.538 409.181 668.766 409.308C668.912 409.392 669.225 409.492 669.703 409.605L670.943 409.903C671.487 410.034 671.897 410.208 672.174 410.426C672.604 410.764 672.818 411.254 672.818 411.896C672.818 412.553 672.566 413.1 672.062 413.536C671.56 413.969 670.851 414.186 669.933 414.186C668.995 414.186 668.258 413.972 667.721 413.546C667.184 413.116 666.915 412.527 666.915 411.778H668.351ZM675.919 409.684C675.597 409.684 675.346 409.785 675.167 409.986C674.991 410.188 674.881 410.462 674.835 410.807H676.998C676.975 410.439 676.863 410.16 676.661 409.972C676.463 409.78 676.215 409.684 675.919 409.684ZM675.919 408.536C676.362 408.536 676.76 408.619 677.115 408.785C677.47 408.951 677.763 409.213 677.994 409.571C678.202 409.887 678.338 410.253 678.399 410.67C678.435 410.914 678.45 411.266 678.443 411.725H674.801C674.82 412.258 674.988 412.633 675.304 412.848C675.496 412.981 675.727 413.048 675.997 413.048C676.284 413.048 676.516 412.966 676.695 412.804C676.793 412.716 676.879 412.594 676.954 412.438H678.375C678.339 412.753 678.175 413.074 677.882 413.399C677.426 413.917 676.788 414.176 675.968 414.176C675.291 414.176 674.693 413.958 674.176 413.521C673.658 413.085 673.399 412.376 673.399 411.393C673.399 410.471 673.632 409.765 674.098 409.273C674.566 408.782 675.174 408.536 675.919 408.536ZM683.053 411.339C683.053 410.929 682.958 410.566 682.77 410.25C682.584 409.934 682.281 409.776 681.861 409.776C681.357 409.776 681.01 410.016 680.821 410.494C680.724 410.748 680.675 411.07 680.675 411.461C680.675 412.079 680.839 412.514 681.168 412.765C681.363 412.911 681.594 412.984 681.861 412.984C682.249 412.984 682.543 412.835 682.745 412.535C682.95 412.236 683.053 411.837 683.053 411.339ZM682.262 408.561C682.883 408.561 683.409 408.79 683.839 409.249C684.272 409.708 684.488 410.382 684.488 411.271C684.488 412.208 684.277 412.923 683.854 413.414C683.434 413.906 682.892 414.151 682.228 414.151C681.804 414.151 681.453 414.046 681.173 413.834C681.02 413.717 680.87 413.546 680.724 413.321V416.095H679.347V408.678H680.68V409.464C680.829 409.233 680.989 409.05 681.158 408.917C681.467 408.679 681.835 408.561 682.262 408.561Z" fill="#CBD5E0"/>
<path d="M592.729 411.28H594.556L593.657 408.448L592.729 411.28ZM592.822 406.803H594.521L597.07 414H595.439L594.976 412.521H592.324L591.826 414H590.254L592.822 406.803ZM599.263 408.678V411.886C599.263 412.188 599.299 412.416 599.37 412.569C599.497 412.84 599.746 412.975 600.117 412.975C600.592 412.975 600.918 412.783 601.094 412.398C601.185 412.19 601.23 411.915 601.23 411.573V408.678H602.642V414H601.289V413.248C601.276 413.264 601.243 413.313 601.191 413.395C601.139 413.476 601.077 413.548 601.006 413.609C600.788 413.805 600.576 413.938 600.371 414.01C600.169 414.081 599.932 414.117 599.658 414.117C598.87 414.117 598.34 413.834 598.066 413.268C597.913 412.955 597.837 412.494 597.837 411.886V408.678H599.263ZM606.274 412.857C606.6 412.857 606.875 412.735 607.1 412.491C607.324 412.244 607.437 411.852 607.437 411.314C607.437 410.81 607.329 410.426 607.114 410.162C606.903 409.898 606.618 409.767 606.26 409.767C605.771 409.767 605.435 409.996 605.249 410.455C605.151 410.699 605.103 411 605.103 411.358C605.103 411.668 605.155 411.943 605.259 412.184C605.448 412.633 605.786 412.857 606.274 412.857ZM605.928 408.551C606.195 408.551 606.427 408.591 606.626 408.673C606.965 408.813 607.238 409.07 607.446 409.444V408.678H608.799V413.727C608.799 414.413 608.683 414.931 608.452 415.279C608.055 415.878 607.293 416.178 606.167 416.178C605.487 416.178 604.932 416.044 604.502 415.777C604.072 415.51 603.835 415.112 603.789 414.581H605.303C605.342 414.744 605.405 414.861 605.493 414.933C605.643 415.06 605.895 415.123 606.25 415.123C606.751 415.123 607.087 414.955 607.256 414.62C607.367 414.405 607.422 414.044 607.422 413.536V413.194C607.288 413.422 607.145 413.593 606.992 413.707C606.715 413.919 606.356 414.024 605.913 414.024C605.229 414.024 604.683 413.785 604.272 413.307C603.866 412.825 603.662 412.174 603.662 411.354C603.662 410.562 603.859 409.898 604.253 409.361C604.647 408.821 605.205 408.551 605.928 408.551Z" fill="#CBD5E0"/>
<path d="M520.141 411.271V411.437C520.154 411.993 520.214 412.385 520.321 412.613C520.432 412.838 520.666 412.95 521.024 412.95C521.379 412.95 521.614 412.826 521.728 412.579C521.796 412.433 521.83 412.185 521.83 411.837V406.803H523.334V411.812C523.334 412.424 523.228 412.91 523.017 413.268C522.659 413.873 522.012 414.176 521.078 414.176C520.144 414.176 519.517 413.932 519.198 413.443C518.879 412.952 518.72 412.283 518.72 411.437V411.271H520.141ZM526.103 408.678V411.886C526.103 412.188 526.138 412.416 526.21 412.569C526.337 412.84 526.586 412.975 526.957 412.975C527.432 412.975 527.758 412.783 527.934 412.398C528.025 412.19 528.07 411.915 528.07 411.573V408.678H529.481V414H528.129V413.248C528.116 413.264 528.083 413.313 528.031 413.395C527.979 413.476 527.917 413.548 527.846 413.609C527.628 413.805 527.416 413.938 527.211 414.01C527.009 414.081 526.771 414.117 526.498 414.117C525.71 414.117 525.18 413.834 524.906 413.268C524.753 412.955 524.677 412.494 524.677 411.886V408.678H526.103ZM532.25 414H530.858V406.803H532.25V414Z" fill="#CBD5E0"/>
<path d="M445.141 411.271V411.437C445.154 411.993 445.214 412.385 445.321 412.613C445.432 412.838 445.666 412.95 446.024 412.95C446.379 412.95 446.614 412.826 446.728 412.579C446.796 412.433 446.83 412.185 446.83 411.837V406.803H448.334V411.812C448.334 412.424 448.228 412.91 448.017 413.268C447.659 413.873 447.012 414.176 446.078 414.176C445.144 414.176 444.517 413.932 444.198 413.443C443.879 412.952 443.72 412.283 443.72 411.437V411.271H445.141ZM451.103 408.678V411.886C451.103 412.188 451.138 412.416 451.21 412.569C451.337 412.84 451.586 412.975 451.957 412.975C452.432 412.975 452.758 412.783 452.934 412.398C453.025 412.19 453.07 411.915 453.07 411.573V408.678H454.481V414H453.129V413.248C453.116 413.264 453.083 413.313 453.031 413.395C452.979 413.476 452.917 413.548 452.846 413.609C452.628 413.805 452.416 413.938 452.211 414.01C452.009 414.081 451.771 414.117 451.498 414.117C450.71 414.117 450.18 413.834 449.906 413.268C449.753 412.955 449.677 412.494 449.677 411.886V408.678H451.103ZM458.778 408.551C459.328 408.551 459.778 408.696 460.126 408.985C460.478 409.272 460.653 409.749 460.653 410.416V414H459.228V410.763C459.228 410.483 459.19 410.268 459.115 410.118C458.979 409.845 458.718 409.708 458.334 409.708C457.862 409.708 457.538 409.908 457.362 410.309C457.271 410.52 457.226 410.79 457.226 411.119V414H455.839V408.688H457.182V409.464C457.361 409.19 457.53 408.993 457.689 408.873C457.976 408.658 458.339 408.551 458.778 408.551Z" fill="#CBD5E0"/>
<path d="M372.532 406.803H374.695V414H373.294V409.132C373.294 408.992 373.296 408.797 373.299 408.546C373.302 408.292 373.304 408.097 373.304 407.96L371.941 414H370.481L369.129 407.96C369.129 408.097 369.131 408.292 369.134 408.546C369.137 408.797 369.139 408.992 369.139 409.132V414H367.737V406.803H369.925L371.233 412.462L372.532 406.803ZM378.914 411.412C378.826 411.467 378.737 411.513 378.646 411.549C378.558 411.581 378.436 411.612 378.279 411.642L377.967 411.7C377.674 411.752 377.464 411.816 377.337 411.891C377.122 412.018 377.015 412.215 377.015 412.481C377.015 412.719 377.08 412.892 377.21 412.999C377.343 413.103 377.505 413.155 377.693 413.155C377.993 413.155 378.268 413.067 378.519 412.892C378.772 412.716 378.904 412.395 378.914 411.93V411.412ZM378.069 410.763C378.326 410.73 378.51 410.689 378.621 410.641C378.82 410.556 378.919 410.424 378.919 410.245C378.919 410.027 378.842 409.877 378.689 409.796C378.54 409.711 378.318 409.669 378.025 409.669C377.697 409.669 377.464 409.75 377.327 409.913C377.229 410.034 377.164 410.196 377.132 410.401H375.789C375.818 409.936 375.949 409.553 376.18 409.254C376.548 408.785 377.179 408.551 378.074 408.551C378.657 408.551 379.174 408.666 379.627 408.897C380.079 409.129 380.306 409.565 380.306 410.206V412.647C380.306 412.817 380.309 413.022 380.315 413.263C380.325 413.445 380.353 413.569 380.398 413.634C380.444 413.699 380.512 413.753 380.604 413.795V414H379.09C379.048 413.893 379.018 413.792 379.002 413.697C378.986 413.603 378.973 413.495 378.963 413.375C378.771 413.583 378.549 413.761 378.299 413.907C377.999 414.08 377.661 414.166 377.283 414.166C376.801 414.166 376.403 414.029 376.087 413.756C375.774 413.479 375.618 413.089 375.618 412.584C375.618 411.93 375.87 411.456 376.375 411.163C376.652 411.004 377.059 410.89 377.596 410.821L378.069 410.763ZM381.761 415.021L381.937 415.03C382.073 415.037 382.203 415.032 382.327 415.016C382.451 414.999 382.555 414.962 382.64 414.903C382.721 414.848 382.796 414.732 382.864 414.557C382.936 414.381 382.965 414.273 382.952 414.234L380.999 408.678H382.547L383.709 412.604L384.808 408.678H386.287L384.461 413.912C384.109 414.921 383.831 415.546 383.626 415.787C383.421 416.031 383.011 416.153 382.396 416.153C382.272 416.153 382.173 416.152 382.098 416.148C382.023 416.148 381.91 416.144 381.761 416.134V415.021Z" fill="#CBD5E0"/>
<path d="M295.229 411.28H297.056L296.157 408.448L295.229 411.28ZM295.322 406.803H297.021L299.57 414H297.939L297.476 412.521H294.824L294.326 414H292.754L295.322 406.803ZM304.043 411.339C304.043 410.929 303.949 410.566 303.76 410.25C303.574 409.934 303.271 409.776 302.852 409.776C302.347 409.776 302 410.016 301.812 410.494C301.714 410.748 301.665 411.07 301.665 411.461C301.665 412.079 301.829 412.514 302.158 412.765C302.354 412.911 302.585 412.984 302.852 412.984C303.239 412.984 303.534 412.835 303.735 412.535C303.94 412.236 304.043 411.837 304.043 411.339ZM303.252 408.561C303.874 408.561 304.399 408.79 304.829 409.249C305.262 409.708 305.479 410.382 305.479 411.271C305.479 412.208 305.267 412.923 304.844 413.414C304.424 413.906 303.882 414.151 303.218 414.151C302.795 414.151 302.443 414.046 302.163 413.834C302.01 413.717 301.86 413.546 301.714 413.321V416.095H300.337V408.678H301.67V409.464C301.82 409.233 301.979 409.05 302.148 408.917C302.458 408.679 302.826 408.561 303.252 408.561ZM309.38 408.551C309.406 408.551 309.427 408.552 309.443 408.556C309.463 408.556 309.504 408.557 309.565 408.561V409.986C309.478 409.977 309.399 409.97 309.331 409.967C309.263 409.964 309.207 409.962 309.165 409.962C308.605 409.962 308.229 410.144 308.037 410.509C307.93 410.714 307.876 411.03 307.876 411.456V414H306.475V408.678H307.803V409.605C308.018 409.251 308.205 409.008 308.364 408.878C308.625 408.66 308.963 408.551 309.38 408.551Z" fill="#CBD5E0"/>
<path d="M223.032 406.803H225.195V414H223.794V409.132C223.794 408.992 223.796 408.797 223.799 408.546C223.802 408.292 223.804 408.097 223.804 407.96L222.441 414H220.981L219.629 407.96C219.629 408.097 219.631 408.292 219.634 408.546C219.637 408.797 219.639 408.992 219.639 409.132V414H218.237V406.803H220.425L221.733 412.462L223.032 406.803ZM229.414 411.412C229.326 411.467 229.237 411.513 229.146 411.549C229.058 411.581 228.936 411.612 228.779 411.642L228.467 411.7C228.174 411.752 227.964 411.816 227.837 411.891C227.622 412.018 227.515 412.215 227.515 412.481C227.515 412.719 227.58 412.892 227.71 412.999C227.843 413.103 228.005 413.155 228.193 413.155C228.493 413.155 228.768 413.067 229.019 412.892C229.272 412.716 229.404 412.395 229.414 411.93V411.412ZM228.569 410.763C228.826 410.73 229.01 410.689 229.121 410.641C229.32 410.556 229.419 410.424 229.419 410.245C229.419 410.027 229.342 409.877 229.189 409.796C229.04 409.711 228.818 409.669 228.525 409.669C228.197 409.669 227.964 409.75 227.827 409.913C227.729 410.034 227.664 410.196 227.632 410.401H226.289C226.318 409.936 226.449 409.553 226.68 409.254C227.048 408.785 227.679 408.551 228.574 408.551C229.157 408.551 229.674 408.666 230.127 408.897C230.579 409.129 230.806 409.565 230.806 410.206V412.647C230.806 412.817 230.809 413.022 230.815 413.263C230.825 413.445 230.853 413.569 230.898 413.634C230.944 413.699 231.012 413.753 231.104 413.795V414H229.59C229.548 413.893 229.518 413.792 229.502 413.697C229.486 413.603 229.473 413.495 229.463 413.375C229.271 413.583 229.049 413.761 228.799 413.907C228.499 414.08 228.161 414.166 227.783 414.166C227.301 414.166 226.903 414.029 226.587 413.756C226.274 413.479 226.118 413.089 226.118 412.584C226.118 411.93 226.37 411.456 226.875 411.163C227.152 411.004 227.559 410.89 228.096 410.821L228.569 410.763ZM234.937 408.551C234.963 408.551 234.984 408.552 235 408.556C235.02 408.556 235.06 408.557 235.122 408.561V409.986C235.034 409.977 234.956 409.97 234.888 409.967C234.819 409.964 234.764 409.962 234.722 409.962C234.162 409.962 233.786 410.144 233.594 410.509C233.486 410.714 233.433 411.03 233.433 411.456V414H232.031V408.678H233.359V409.605C233.574 409.251 233.761 409.008 233.921 408.878C234.181 408.66 234.52 408.551 234.937 408.551Z" fill="#CBD5E0"/>
<path d="M143.262 406.812H148.364V408.077H144.756V409.732H147.915V410.982H144.756V414H143.262V406.812ZM151.362 409.684C151.04 409.684 150.789 409.785 150.61 409.986C150.435 410.188 150.324 410.462 150.278 410.807H152.441C152.419 410.439 152.306 410.16 152.104 409.972C151.906 409.78 151.659 409.684 151.362 409.684ZM151.362 408.536C151.805 408.536 152.204 408.619 152.559 408.785C152.913 408.951 153.206 409.213 153.438 409.571C153.646 409.887 153.781 410.253 153.843 410.67C153.879 410.914 153.893 411.266 153.887 411.725H150.244C150.264 412.258 150.431 412.633 150.747 412.848C150.939 412.981 151.17 413.048 151.44 413.048C151.727 413.048 151.96 412.966 152.139 412.804C152.236 412.716 152.323 412.594 152.397 412.438H153.818C153.783 412.753 153.618 413.074 153.325 413.399C152.869 413.917 152.231 414.176 151.411 414.176C150.734 414.176 150.137 413.958 149.619 413.521C149.102 413.085 148.843 412.376 148.843 411.393C148.843 410.471 149.076 409.765 149.541 409.273C150.01 408.782 150.617 408.536 151.362 408.536ZM157.705 408.561C158.405 408.561 158.952 408.813 159.346 409.317C159.743 409.822 159.941 410.473 159.941 411.271C159.941 412.097 159.746 412.783 159.355 413.326C158.965 413.87 158.42 414.142 157.72 414.142C157.28 414.142 156.927 414.054 156.66 413.878C156.501 413.774 156.328 413.591 156.143 413.331V414H154.78V406.812H156.167V409.371C156.343 409.124 156.536 408.935 156.748 408.805C156.999 408.642 157.318 408.561 157.705 408.561ZM157.349 412.994C157.707 412.994 157.985 412.849 158.184 412.56C158.382 412.27 158.481 411.889 158.481 411.417C158.481 411.039 158.433 410.727 158.335 410.479C158.149 410.011 157.808 409.776 157.31 409.776C156.805 409.776 156.458 410.006 156.27 410.465C156.172 410.709 156.123 411.025 156.123 411.412C156.123 411.868 156.224 412.245 156.426 412.545C156.628 412.844 156.935 412.994 157.349 412.994Z" fill="#CBD5E0"/>
<path d="M69.6406 411.271V411.437C69.6536 411.993 69.7139 412.385 69.8213 412.613C69.932 412.838 70.1663 412.95 70.5244 412.95C70.8792 412.95 71.1136 412.826 71.2275 412.579C71.2959 412.433 71.3301 412.185 71.3301 411.837V406.803H72.834V411.812C72.834 412.424 72.7282 412.91 72.5166 413.268C72.1585 413.873 71.5124 414.176 70.5781 414.176C69.6439 414.176 69.0173 413.932 68.6982 413.443C68.3792 412.952 68.2197 412.283 68.2197 411.437V411.271H69.6406ZM77.1504 411.412C77.0625 411.467 76.973 411.513 76.8818 411.549C76.7939 411.581 76.6719 411.612 76.5156 411.642L76.2031 411.7C75.9102 411.752 75.7002 411.816 75.5732 411.891C75.3584 412.018 75.251 412.215 75.251 412.481C75.251 412.719 75.3161 412.892 75.4463 412.999C75.5798 413.103 75.7409 413.155 75.9297 413.155C76.2292 413.155 76.5042 413.067 76.7549 412.892C77.0088 412.716 77.1406 412.395 77.1504 411.93V411.412ZM76.3057 410.763C76.5628 410.73 76.7467 410.689 76.8574 410.641C77.056 410.556 77.1553 410.424 77.1553 410.245C77.1553 410.027 77.0788 409.877 76.9258 409.796C76.776 409.711 76.5547 409.669 76.2617 409.669C75.9329 409.669 75.7002 409.75 75.5635 409.913C75.4658 410.034 75.4007 410.196 75.3682 410.401H74.0254C74.0547 409.936 74.1849 409.553 74.416 409.254C74.7839 408.785 75.4154 408.551 76.3105 408.551C76.8932 408.551 77.4108 408.666 77.8633 408.897C78.3158 409.129 78.542 409.565 78.542 410.206V412.647C78.542 412.817 78.5452 413.022 78.5518 413.263C78.5615 413.445 78.5892 413.569 78.6348 413.634C78.6803 413.699 78.7487 413.753 78.8398 413.795V414H77.3262C77.2839 413.893 77.2546 413.792 77.2383 413.697C77.222 413.603 77.209 413.495 77.1992 413.375C77.0072 413.583 76.7858 413.761 76.5352 413.907C76.2357 414.08 75.8971 414.166 75.5195 414.166C75.0378 414.166 74.639 414.029 74.3232 413.756C74.0107 413.479 73.8545 413.089 73.8545 412.584C73.8545 411.93 74.1068 411.456 74.6113 411.163C74.888 411.004 75.2949 410.89 75.832 410.821L76.3057 410.763ZM82.7314 408.551C83.2816 408.551 83.7308 408.696 84.0791 408.985C84.4307 409.272 84.6064 409.749 84.6064 410.416V414H83.1807V410.763C83.1807 410.483 83.1432 410.268 83.0684 410.118C82.9316 409.845 82.6712 409.708 82.2871 409.708C81.8151 409.708 81.4912 409.908 81.3154 410.309C81.2243 410.52 81.1787 410.79 81.1787 411.119V414H79.792V408.688H81.1348V409.464C81.3138 409.19 81.4831 408.993 81.6426 408.873C81.929 408.658 82.292 408.551 82.7314 408.551Z" fill="#CBD5E0"/>
<path d="M39.7334 379.028C39.7334 379.842 39.8001 380.465 39.9336 380.898C40.0671 381.328 40.3405 381.543 40.7539 381.543C41.1673 381.543 41.4375 381.328 41.5645 380.898C41.6947 380.465 41.7598 379.842 41.7598 379.028C41.7598 378.175 41.6947 377.544 41.5645 377.134C41.4375 376.724 41.1673 376.519 40.7539 376.519C40.3405 376.519 40.0671 376.724 39.9336 377.134C39.8001 377.544 39.7334 378.175 39.7334 379.028ZM40.7539 375.371C41.6556 375.371 42.2871 375.688 42.6484 376.323C43.013 376.958 43.1953 377.86 43.1953 379.028C43.1953 380.197 43.013 381.097 42.6484 381.729C42.2871 382.36 41.6556 382.676 40.7539 382.676C39.8522 382.676 39.2191 382.36 38.8545 381.729C38.4932 381.097 38.3125 380.197 38.3125 379.028C38.3125 377.86 38.4932 376.958 38.8545 376.323C39.2191 375.688 39.8522 375.371 40.7539 375.371Z" fill="#CBD5E0"/>
<path d="M27.6934 327.617V326.67C28.1328 326.65 28.4404 326.621 28.6162 326.582C28.8962 326.52 29.124 326.396 29.2998 326.211C29.4202 326.084 29.5114 325.915 29.5732 325.703C29.609 325.576 29.627 325.482 29.627 325.42H30.7842V332.5H29.3584V327.617H27.6934ZM34.2998 329.028C34.2998 329.842 34.3665 330.465 34.5 330.898C34.6335 331.328 34.9069 331.543 35.3203 331.543C35.7337 331.543 36.0039 331.328 36.1309 330.898C36.2611 330.465 36.3262 329.842 36.3262 329.028C36.3262 328.175 36.2611 327.544 36.1309 327.134C36.0039 326.724 35.7337 326.519 35.3203 326.519C34.9069 326.519 34.6335 326.724 34.5 327.134C34.3665 327.544 34.2998 328.175 34.2998 329.028ZM35.3203 325.371C36.222 325.371 36.8535 325.688 37.2148 326.323C37.5794 326.958 37.7617 327.86 37.7617 329.028C37.7617 330.197 37.5794 331.097 37.2148 331.729C36.8535 332.36 36.222 332.676 35.3203 332.676C34.4186 332.676 33.7855 332.36 33.4209 331.729C33.0596 331.097 32.8789 330.197 32.8789 329.028C32.8789 327.86 33.0596 326.958 33.4209 326.323C33.7855 325.688 34.4186 325.371 35.3203 325.371ZM39.8662 329.028C39.8662 329.842 39.9329 330.465 40.0664 330.898C40.1999 331.328 40.4733 331.543 40.8867 331.543C41.3001 331.543 41.5703 331.328 41.6973 330.898C41.8275 330.465 41.8926 329.842 41.8926 329.028C41.8926 328.175 41.8275 327.544 41.6973 327.134C41.5703 326.724 41.3001 326.519 40.8867 326.519C40.4733 326.519 40.1999 326.724 40.0664 327.134C39.9329 327.544 39.8662 328.175 39.8662 329.028ZM40.8867 325.371C41.7884 325.371 42.4199 325.688 42.7812 326.323C43.1458 326.958 43.3281 327.86 43.3281 329.028C43.3281 330.197 43.1458 331.097 42.7812 331.729C42.4199 332.36 41.7884 332.676 40.8867 332.676C39.985 332.676 39.3519 332.36 38.9873 331.729C38.626 331.097 38.4453 330.197 38.4453 329.028C38.4453 327.86 38.626 326.958 38.9873 326.323C39.3519 325.688 39.985 325.371 40.8867 325.371Z" fill="#CBD5E0"/>
<path d="M27.3125 282.5C27.3255 281.992 27.4346 281.528 27.6396 281.108C27.8382 280.636 28.307 280.137 29.0459 279.609C29.6872 279.15 30.1022 278.822 30.291 278.623C30.5807 278.314 30.7256 277.975 30.7256 277.607C30.7256 277.308 30.6426 277.059 30.4766 276.86C30.3105 276.662 30.0729 276.562 29.7637 276.562C29.3405 276.562 29.0524 276.72 28.8994 277.036C28.8115 277.218 28.7594 277.508 28.7432 277.905H27.3906C27.4134 277.303 27.5225 276.816 27.7178 276.445C28.0889 275.739 28.748 275.386 29.6953 275.386C30.444 275.386 31.0397 275.594 31.4824 276.011C31.9251 276.424 32.1465 276.973 32.1465 277.656C32.1465 278.18 31.9902 278.646 31.6777 279.053C31.4727 279.323 31.1357 279.624 30.667 279.956L30.1104 280.352C29.762 280.599 29.5228 280.778 29.3926 280.889C29.2656 280.999 29.1582 281.128 29.0703 281.274H32.1611V282.5H27.3125ZM34.2998 279.028C34.2998 279.842 34.3665 280.465 34.5 280.898C34.6335 281.328 34.9069 281.543 35.3203 281.543C35.7337 281.543 36.0039 281.328 36.1309 280.898C36.2611 280.465 36.3262 279.842 36.3262 279.028C36.3262 278.175 36.2611 277.544 36.1309 277.134C36.0039 276.724 35.7337 276.519 35.3203 276.519C34.9069 276.519 34.6335 276.724 34.5 277.134C34.3665 277.544 34.2998 278.175 34.2998 279.028ZM35.3203 275.371C36.222 275.371 36.8535 275.688 37.2148 276.323C37.5794 276.958 37.7617 277.86 37.7617 279.028C37.7617 280.197 37.5794 281.097 37.2148 281.729C36.8535 282.36 36.222 282.676 35.3203 282.676C34.4186 282.676 33.7855 282.36 33.4209 281.729C33.0596 281.097 32.8789 280.197 32.8789 279.028C32.8789 277.86 33.0596 276.958 33.4209 276.323C33.7855 275.688 34.4186 275.371 35.3203 275.371ZM39.8662 279.028C39.8662 279.842 39.9329 280.465 40.0664 280.898C40.1999 281.328 40.4733 281.543 40.8867 281.543C41.3001 281.543 41.5703 281.328 41.6973 280.898C41.8275 280.465 41.8926 279.842 41.8926 279.028C41.8926 278.175 41.8275 277.544 41.6973 277.134C41.5703 276.724 41.3001 276.519 40.8867 276.519C40.4733 276.519 40.1999 276.724 40.0664 277.134C39.9329 277.544 39.8662 278.175 39.8662 279.028ZM40.8867 275.371C41.7884 275.371 42.4199 275.688 42.7812 276.323C43.1458 276.958 43.3281 277.86 43.3281 279.028C43.3281 280.197 43.1458 281.097 42.7812 281.729C42.4199 282.36 41.7884 282.676 40.8867 282.676C39.985 282.676 39.3519 282.36 38.9873 281.729C38.626 281.097 38.4453 280.197 38.4453 279.028C38.4453 277.86 38.626 276.958 38.9873 276.323C39.3519 275.688 39.985 275.371 40.8867 275.371Z" fill="#CBD5E0"/>
<path d="M28.6309 230.327C28.6309 230.61 28.6764 230.845 28.7676 231.03C28.9368 231.372 29.2445 231.543 29.6904 231.543C29.9639 231.543 30.2015 231.45 30.4033 231.265C30.6084 231.076 30.7109 230.806 30.7109 230.454C30.7109 229.989 30.5221 229.678 30.1445 229.521C29.9297 229.434 29.5911 229.39 29.1289 229.39V228.394C29.5814 228.387 29.8971 228.343 30.0762 228.262C30.3854 228.125 30.54 227.848 30.54 227.432C30.54 227.161 30.4603 226.942 30.3008 226.772C30.1445 226.603 29.9232 226.519 29.6367 226.519C29.3079 226.519 29.0654 226.623 28.9092 226.831C28.7562 227.039 28.6829 227.318 28.6895 227.666H27.3906C27.4036 227.314 27.4639 226.981 27.5713 226.665C27.6852 226.388 27.8643 226.133 28.1084 225.898C28.2907 225.732 28.5072 225.605 28.7578 225.518C29.0085 225.43 29.3161 225.386 29.6807 225.386C30.3577 225.386 30.903 225.562 31.3164 225.913C31.7331 226.261 31.9414 226.73 31.9414 227.319C31.9414 227.736 31.8177 228.088 31.5703 228.374C31.4141 228.553 31.2513 228.675 31.082 228.74C31.209 228.74 31.3913 228.849 31.6289 229.067C31.9837 229.396 32.1611 229.845 32.1611 230.415C32.1611 231.014 31.9528 231.541 31.5361 231.997C31.1227 232.45 30.5091 232.676 29.6953 232.676C28.6927 232.676 27.9961 232.349 27.6055 231.694C27.4004 231.346 27.2865 230.89 27.2637 230.327H28.6309ZM34.2998 229.028C34.2998 229.842 34.3665 230.465 34.5 230.898C34.6335 231.328 34.9069 231.543 35.3203 231.543C35.7337 231.543 36.0039 231.328 36.1309 230.898C36.2611 230.465 36.3262 229.842 36.3262 229.028C36.3262 228.175 36.2611 227.544 36.1309 227.134C36.0039 226.724 35.7337 226.519 35.3203 226.519C34.9069 226.519 34.6335 226.724 34.5 227.134C34.3665 227.544 34.2998 228.175 34.2998 229.028ZM35.3203 225.371C36.222 225.371 36.8535 225.688 37.2148 226.323C37.5794 226.958 37.7617 227.86 37.7617 229.028C37.7617 230.197 37.5794 231.097 37.2148 231.729C36.8535 232.36 36.222 232.676 35.3203 232.676C34.4186 232.676 33.7855 232.36 33.4209 231.729C33.0596 231.097 32.8789 230.197 32.8789 229.028C32.8789 227.86 33.0596 226.958 33.4209 226.323C33.7855 225.688 34.4186 225.371 35.3203 225.371ZM39.8662 229.028C39.8662 229.842 39.9329 230.465 40.0664 230.898C40.1999 231.328 40.4733 231.543 40.8867 231.543C41.3001 231.543 41.5703 231.328 41.6973 230.898C41.8275 230.465 41.8926 229.842 41.8926 229.028C41.8926 228.175 41.8275 227.544 41.6973 227.134C41.5703 226.724 41.3001 226.519 40.8867 226.519C40.4733 226.519 40.1999 226.724 40.0664 227.134C39.9329 227.544 39.8662 228.175 39.8662 229.028ZM40.8867 225.371C41.7884 225.371 42.4199 225.688 42.7812 226.323C43.1458 226.958 43.3281 227.86 43.3281 229.028C43.3281 230.197 43.1458 231.097 42.7812 231.729C42.4199 232.36 41.7884 232.676 40.8867 232.676C39.985 232.676 39.3519 232.36 38.9873 231.729C38.626 231.097 38.4453 230.197 38.4453 229.028C38.4453 227.86 38.626 226.958 38.9873 226.323C39.3519 225.688 39.985 225.371 40.8867 225.371Z" fill="#CBD5E0"/>
<path d="M32.2295 180.977H31.4287V182.5H30.0664V180.977H27.2637V179.761L29.8662 175.464H31.4287V179.888H32.2295V180.977ZM30.0664 179.888V176.831L28.2939 179.888H30.0664ZM34.2998 179.028C34.2998 179.842 34.3665 180.465 34.5 180.898C34.6335 181.328 34.9069 181.543 35.3203 181.543C35.7337 181.543 36.0039 181.328 36.1309 180.898C36.2611 180.465 36.3262 179.842 36.3262 179.028C36.3262 178.175 36.2611 177.544 36.1309 177.134C36.0039 176.724 35.7337 176.519 35.3203 176.519C34.9069 176.519 34.6335 176.724 34.5 177.134C34.3665 177.544 34.2998 178.175 34.2998 179.028ZM35.3203 175.371C36.222 175.371 36.8535 175.688 37.2148 176.323C37.5794 176.958 37.7617 177.86 37.7617 179.028C37.7617 180.197 37.5794 181.097 37.2148 181.729C36.8535 182.36 36.222 182.676 35.3203 182.676C34.4186 182.676 33.7855 182.36 33.4209 181.729C33.0596 181.097 32.8789 180.197 32.8789 179.028C32.8789 177.86 33.0596 176.958 33.4209 176.323C33.7855 175.688 34.4186 175.371 35.3203 175.371ZM39.8662 179.028C39.8662 179.842 39.9329 180.465 40.0664 180.898C40.1999 181.328 40.4733 181.543 40.8867 181.543C41.3001 181.543 41.5703 181.328 41.6973 180.898C41.8275 180.465 41.8926 179.842 41.8926 179.028C41.8926 178.175 41.8275 177.544 41.6973 177.134C41.5703 176.724 41.3001 176.519 40.8867 176.519C40.4733 176.519 40.1999 176.724 40.0664 177.134C39.9329 177.544 39.8662 178.175 39.8662 179.028ZM40.8867 175.371C41.7884 175.371 42.4199 175.688 42.7812 176.323C43.1458 176.958 43.3281 177.86 43.3281 179.028C43.3281 180.197 43.1458 181.097 42.7812 181.729C42.4199 182.36 41.7884 182.676 40.8867 182.676C39.985 182.676 39.3519 182.36 38.9873 181.729C38.626 181.097 38.4453 180.197 38.4453 179.028C38.4453 177.86 38.626 176.958 38.9873 176.323C39.3519 175.688 39.985 175.371 40.8867 175.371Z" fill="#CBD5E0"/>
<path d="M28.6504 130.605C28.7057 130.908 28.8115 131.143 28.9678 131.309C29.124 131.471 29.3519 131.553 29.6514 131.553C29.9964 131.553 30.2585 131.432 30.4375 131.191C30.6198 130.947 30.7109 130.641 30.7109 130.273C30.7109 129.912 30.6263 129.608 30.457 129.36C30.2878 129.11 30.0241 128.984 29.666 128.984C29.4967 128.984 29.3503 129.006 29.2266 129.048C29.0085 129.126 28.8441 129.271 28.7334 129.482L27.4834 129.424L27.9814 125.513H31.8828V126.694H28.9873L28.7334 128.242C28.9482 128.102 29.1159 128.009 29.2363 127.964C29.4382 127.889 29.6839 127.852 29.9736 127.852C30.5596 127.852 31.0706 128.049 31.5068 128.442C31.943 128.836 32.1611 129.409 32.1611 130.161C32.1611 130.815 31.9512 131.4 31.5312 131.914C31.1113 132.428 30.4831 132.686 29.6465 132.686C28.9727 132.686 28.4193 132.505 27.9863 132.144C27.5534 131.782 27.3125 131.27 27.2637 130.605H28.6504ZM34.2998 129.028C34.2998 129.842 34.3665 130.466 34.5 130.898C34.6335 131.328 34.9069 131.543 35.3203 131.543C35.7337 131.543 36.0039 131.328 36.1309 130.898C36.2611 130.466 36.3262 129.842 36.3262 129.028C36.3262 128.175 36.2611 127.544 36.1309 127.134C36.0039 126.724 35.7337 126.519 35.3203 126.519C34.9069 126.519 34.6335 126.724 34.5 127.134C34.3665 127.544 34.2998 128.175 34.2998 129.028ZM35.3203 125.371C36.222 125.371 36.8535 125.688 37.2148 126.323C37.5794 126.958 37.7617 127.86 37.7617 129.028C37.7617 130.197 37.5794 131.097 37.2148 131.729C36.8535 132.36 36.222 132.676 35.3203 132.676C34.4186 132.676 33.7855 132.36 33.4209 131.729C33.0596 131.097 32.8789 130.197 32.8789 129.028C32.8789 127.86 33.0596 126.958 33.4209 126.323C33.7855 125.688 34.4186 125.371 35.3203 125.371ZM39.8662 129.028C39.8662 129.842 39.9329 130.466 40.0664 130.898C40.1999 131.328 40.4733 131.543 40.8867 131.543C41.3001 131.543 41.5703 131.328 41.6973 130.898C41.8275 130.466 41.8926 129.842 41.8926 129.028C41.8926 128.175 41.8275 127.544 41.6973 127.134C41.5703 126.724 41.3001 126.519 40.8867 126.519C40.4733 126.519 40.1999 126.724 40.0664 127.134C39.9329 127.544 39.8662 128.175 39.8662 129.028ZM40.8867 125.371C41.7884 125.371 42.4199 125.688 42.7812 126.323C43.1458 126.958 43.3281 127.86 43.3281 129.028C43.3281 130.197 43.1458 131.097 42.7812 131.729C42.4199 132.36 41.7884 132.676 40.8867 132.676C39.985 132.676 39.3519 132.36 38.9873 131.729C38.626 131.097 38.4453 130.197 38.4453 129.028C38.4453 127.86 38.626 126.958 38.9873 126.323C39.3519 125.688 39.985 125.371 40.8867 125.371Z" fill="#CBD5E0"/>
<line x1="68.5" y1="378.5" x2="907.5" y2="378.5" stroke="#E2E8F0" stroke-linecap="round" stroke-linejoin="round" stroke-dasharray="3.5 3.5"/>
<line x1="68.5" y1="328.5" x2="907.5" y2="328.5" stroke="#E2E8F0" stroke-linecap="round" stroke-linejoin="round" stroke-dasharray="3.5 3.5"/>
<line x1="68.5" y1="278.5" x2="907.5" y2="278.5" stroke="#E2E8F0" stroke-linecap="round" stroke-linejoin="round" stroke-dasharray="3.5 3.5"/>
<line x1="68.5" y1="228.5" x2="907.5" y2="228.5" stroke="#E2E8F0" stroke-linecap="round" stroke-linejoin="round" stroke-dasharray="3.5 3.5"/>
<line x1="68.5" y1="178.5" x2="907.5" y2="178.5" stroke="#E2E8F0" stroke-linecap="round" stroke-linejoin="round" stroke-dasharray="3.5 3.5"/>
<line x1="68.5" y1="128.5" x2="907.5" y2="128.5" stroke="#E2E8F0" stroke-linecap="round" stroke-linejoin="round" stroke-dasharray="3.5 3.5"/>
<path d="M793.203 298.545C836.811 285.448 887.904 304.003 908 314.917V378.75H68V129C110.201 136.492 137.33 198.095 144.112 237.22C149.644 269.132 149.89 291.886 179.28 298.545C208.827 305.24 243.859 283.936 273.5 255.077C297.213 231.99 332.615 245.457 347.352 255.077C373.476 271.819 416.51 283.172 451.074 266.079C494.28 244.713 518.144 250.817 572.653 266.079C627.163 281.341 621.636 291.053 667.103 314.917C712.569 338.781 738.694 314.917 793.203 298.545Z" fill="url(#paint0_linear_370_7022)"/>
<path d="M908 314.917C887.904 304.003 836.811 285.448 793.203 298.545C738.694 314.917 712.569 338.781 667.103 314.917C621.636 291.053 627.163 281.341 572.653 266.079C518.144 250.817 494.28 244.713 451.074 266.079C416.51 283.172 373.476 271.819 347.352 255.077C332.615 245.457 297.213 231.99 273.5 255.077C243.859 283.936 208.827 305.24 179.28 298.545C149.89 291.886 149.644 269.132 144.112 237.22C137.33 198.095 110.201 136.492 68 129" stroke="#2D3748" stroke-width="3"/>
<path d="M181.914 271.457C138.642 258.369 87.9412 276.91 68 287.817V378.5H907V163.907C865.123 171.394 829.55 169.453 822.82 208.55C817.331 240.438 817.087 263.175 787.923 269.83C758.603 276.52 741.559 237.387 712.146 208.55C688.615 185.48 648.986 215.5 634.362 225.113C608.439 241.842 549.507 205.341 523.967 176.648C487.5 135.678 439.543 131.931 403.323 176.648C367.104 221.365 331.178 184.703 286.061 208.55C240.944 232.396 236.005 287.817 181.914 271.457Z" fill="url(#paint1_linear_370_7022)"/>
<path d="M68 288C87.9412 277.08 138.642 258.515 181.914 271.619C236.005 288 240.944 232.509 286.061 208.632C331.178 184.755 367.104 221.464 403.323 176.689C439.543 131.915 487.5 135.667 523.967 176.689C549.507 205.419 608.439 241.967 634.362 225.216C648.986 215.591 688.615 185.532 712.146 208.632C741.559 237.506 758.603 276.689 787.923 269.99C817.087 263.327 817.331 240.56 822.82 208.632C829.55 169.485 865.123 171.429 907 163.932" stroke="#4FD1C5" stroke-width="3"/>
<defs>
<filter id="filter0_d_370_7022" x="-4.76837e-07" y="1.19209e-05" width="935" height="456" filterUnits="userSpaceOnUse" color-interpolation-filters="sRGB">
<feFlood flood-opacity="0" result="BackgroundImageFix"/>
<feColorMatrix in="SourceAlpha" type="matrix" values="0 0 0 0 0 0 0 0 0 0 0 0 0 0 0 0 0 0 127 0" result="hardAlpha"/>
<feOffset dy="3.5"/>
<feGaussianBlur stdDeviation="2.75"/>
<feColorMatrix type="matrix" values="0 0 0 0 0 0 0 0 0 0 0 0 0 0 0 0 0 0 0.02 0"/>
<feBlend mode="normal" in2="BackgroundImageFix" result="effect1_dropShadow_370_7022"/>
<feBlend mode="normal" in="SourceGraphic" in2="effect1_dropShadow_370_7022" result="shape"/>
</filter>
<linearGradient id="paint0_linear_370_7022" x1="488" y1="129" x2="488" y2="378.75" gradientUnits="userSpaceOnUse">
<stop stop-color="#2D3748" stop-opacity="0.36"/>
<stop offset="1" stop-color="#2D3748" stop-opacity="0"/>
</linearGradient>
<linearGradient id="paint1_linear_370_7022" x1="487.5" y1="144.5" x2="487.5" y2="378.5" gradientUnits="userSpaceOnUse">
<stop stop-color="#4FD1C5" stop-opacity="0.54"/>
<stop offset="1" stop-color="#4FD1C5" stop-opacity="0"/>
</linearGradient>
</defs>
</svg>
