<svg width="20" height="21" viewBox="0 0 20 21" fill="none" xmlns="http://www.w3.org/2000/svg">
<g clip-path="url(#clip0_370_6957)">
<path fill-rule="evenodd" clip-rule="evenodd" d="M7.33278 -0.000793457C6.22721 4.24247e-05 5.33245 0.917841 5.33327 2.04879C5.33245 3.17974 6.22802 4.09753 7.3336 4.09837H9.33392V2.04962C9.33474 0.918676 8.43917 0.000878306 7.33278 -0.000793457C7.3336 -0.000793457 7.3336 -0.000793457 7.33278 -0.000793457V-0.000793457ZM7.33278 5.46587H2.00021C0.894634 5.46671 -0.000936964 6.38451 -0.000119837 7.51546C-0.00175409 8.6464 0.893817 9.5642 1.99939 9.56587H7.33278C8.43835 9.56504 9.33392 8.64724 9.33311 7.51629C9.33392 6.38451 8.43835 5.46671 7.33278 5.46587Z" fill="#36C5F0"/>
<path fill-rule="evenodd" clip-rule="evenodd" d="M20.0001 7.51625C20.0009 6.3853 19.1054 5.4675 17.9998 5.46667C16.8942 5.4675 15.9986 6.3853 15.9995 7.51625V9.56667H17.9998C19.1054 9.56583 20.0009 8.64803 20.0001 7.51625ZM14.6667 7.51625V2.04958C14.6675 0.91947 13.7728 0.00167176 12.6672 0C11.5616 0.000835882 10.6661 0.918634 10.6669 2.04958V7.51625C10.6652 8.6472 11.5608 9.56499 12.6664 9.56667C13.772 9.56583 14.6675 8.64803 14.6667 7.51625Z" fill="#2EB67D"/>
<path fill-rule="evenodd" clip-rule="evenodd" d="M12.6665 20.5C13.772 20.4992 14.6676 19.5814 14.6668 18.4504C14.6676 17.3195 13.772 16.4017 12.6665 16.4008H10.6661V18.4504C10.6653 19.5805 11.5609 20.4983 12.6665 20.5ZM12.6665 15.0325H17.9999C19.1054 15.0317 20.001 14.1139 20.0002 12.9829C20.0018 11.852 19.1062 10.9342 18.0007 10.9325H12.6673C11.5617 10.9333 10.6661 11.8511 10.667 12.9821C10.6661 14.1139 11.5609 15.0317 12.6665 15.0325Z" fill="#ECB22E"/>
<path fill-rule="evenodd" clip-rule="evenodd" d="M0.000122629 12.9829C-0.000694498 14.1138 0.894877 15.0316 2.00045 15.0325C3.10602 15.0316 4.00159 14.1138 4.00078 12.9829V10.9333H2.00045C0.894877 10.9341 -0.000694498 11.8519 0.000122629 12.9829ZM5.33351 12.9829V18.4496C5.33188 19.5805 6.22745 20.4983 7.33302 20.5C8.43859 20.4991 9.33416 19.5813 9.33335 18.4504V12.9845C9.33498 11.8536 8.43941 10.9358 7.33384 10.9341C6.22745 10.9341 5.33269 11.8519 5.33351 12.9829C5.33351 12.9837 5.33351 12.9829 5.33351 12.9829Z" fill="#E01E5A"/>
</g>
<defs>
<clipPath id="clip0_370_6957">
<rect width="20" height="20.5" fill="white" transform="translate(0.00012207 -0.000793457)"/>
</clipPath>
</defs>
</svg>
