<svg width="20" height="21" viewBox="0 0 20 21" fill="none" xmlns="http://www.w3.org/2000/svg">
<g clip-path="url(#clip0_370_6909)">
<path d="M19.7595 9.91897L10.8967 0.989848L10.0379 0.124634L3.36625 6.84626L0.315444 9.91897C0.163058 10.0733 0.0775146 10.2821 0.0775146 10.4998C0.0775146 10.7175 0.163058 10.9263 0.315444 11.0806L6.41061 17.2214L10.0379 20.875L16.7087 14.1533L16.8126 14.0496L19.7595 11.0853C19.8359 11.0089 19.8965 10.918 19.9378 10.8179C19.9792 10.7179 20.0005 10.6105 20.0005 10.5021C20.0005 10.3937 19.9792 10.2864 19.9378 10.1863C19.8965 10.0862 19.8359 9.99535 19.7595 9.91897ZM10.0379 13.5679L6.99264 10.4998L10.0379 7.43171L13.0823 10.4998L10.0379 13.5679Z" fill="#2684FF"/>
<path d="M10.0375 7.43191C9.07978 6.46722 8.53988 5.15988 8.53575 3.79546C8.53161 2.43103 9.06358 1.1204 10.0155 0.149841L3.35205 6.86035L6.97844 10.5139L10.0375 7.43191Z" fill="url(#paint0_linear_370_6909)"/>
<path d="M13.0902 10.4916L10.0376 13.5681C10.999 14.5369 11.539 15.8507 11.539 17.2207C11.539 18.5906 10.999 19.9045 10.0376 20.8733L16.7194 14.1452L13.0902 10.4916Z" fill="url(#paint1_linear_370_6909)"/>
</g>
<defs>
<linearGradient id="paint0_linear_370_6909" x1="9.49228" y1="4.3277" x2="5.20802" y2="8.5792" gradientUnits="userSpaceOnUse">
<stop offset="0.18" stop-color="#0052CC"/>
<stop offset="1" stop-color="#2684FF"/>
</linearGradient>
<linearGradient id="paint1_linear_370_6909" x1="776.104" y1="900.925" x2="1212.24" y2="1181.57" gradientUnits="userSpaceOnUse">
<stop offset="0.18" stop-color="#0052CC"/>
<stop offset="1" stop-color="#2684FF"/>
</linearGradient>
<clipPath id="clip0_370_6909">
<rect width="20" height="21" fill="white" transform="translate(0.00012207 -0.000793457)"/>
</clipPath>
</defs>
</svg>
