<svg width="20" height="21" viewBox="0 0 20 21" fill="none" xmlns="http://www.w3.org/2000/svg">
<g clip-path="url(#clip0_370_6938)">
<path d="M10.0001 0.5C4.47709 0.5 0.00012207 4.97697 0.00012207 10.5C0.00012207 16.023 4.47709 20.5 10.0001 20.5C15.5232 20.5 20.0001 16.023 20.0001 10.5C20.0001 4.97765 15.5232 0.500682 10.0001 0.5ZM14.5863 14.9224C14.4068 15.2172 14.0226 15.3093 13.7292 15.1298C11.3812 13.6948 8.42523 13.3707 4.94451 14.1656C4.60879 14.2427 4.27443 14.0326 4.19801 13.6969C4.1209 13.3611 4.33038 13.0268 4.66679 12.9504C8.47573 12.0803 11.7436 12.455 14.3795 14.0653C14.6729 14.2462 14.7664 14.629 14.5863 14.9224ZM15.8097 12.2004C15.5839 12.5676 15.1035 12.6822 14.7371 12.457C12.0499 10.805 7.95167 10.3267 4.77255 11.2915C4.36041 11.4164 3.92506 11.1837 3.79951 10.7723C3.67532 10.3601 3.908 9.92545 4.31947 9.7999C7.95099 8.69788 12.4662 9.23149 15.5525 11.1285C15.9196 11.3543 16.0356 11.834 15.8097 12.2004ZM15.9148 9.36455C12.6914 7.45053 7.3744 7.27448 4.29695 8.20795C3.80292 8.35807 3.28023 8.07898 3.13079 7.58495C2.98136 7.09092 3.25976 6.56824 3.75447 6.41812C7.28706 5.34613 13.1588 5.55288 16.8694 7.75554C17.3137 8.01962 17.4597 8.59348 17.1963 9.03702C16.9336 9.48192 16.3584 9.62862 15.9148 9.36455Z" fill="#2EBD59"/>
</g>
<defs>
<clipPath id="clip0_370_6938">
<rect width="20" height="20" fill="white" transform="translate(0.00012207 0.5)"/>
</clipPath>
</defs>
</svg>
