<svg width="20" height="20" viewBox="0 0 20 20" fill="none" xmlns="http://www.w3.org/2000/svg">
<g clip-path="url(#clip0_370_6897)">
<path d="M18.1871 -0.000793457H1.81317C0.811841 -0.000793457 0.00012207 0.810925 0.00012207 1.81225V18.1862C0.00012207 19.1875 0.811841 19.9992 1.81317 19.9992H18.1871C19.1884 19.9992 20.0001 19.1875 20.0001 18.1862V1.81225C20.0001 0.810925 19.1884 -0.000793457 18.1871 -0.000793457Z" fill="#DC395F"/>
<path d="M6.68403 6.29259C7.34888 6.29259 7.90583 5.7715 7.90583 5.08853C7.90583 4.40603 7.34888 3.88501 6.68403 3.88501C6.01919 3.88501 5.46239 4.40603 5.46239 5.08853C5.46239 5.77142 6.01919 6.29259 6.68403 6.29259ZM4.15075 12.7395C4.07896 13.0449 4.04294 13.3748 4.04294 13.6439C4.04294 14.7041 4.61786 15.4079 5.83966 15.4079C6.85294 15.4079 7.67442 14.8062 8.26591 13.8346L7.90474 15.284H9.91685L11.0668 10.6716C11.3543 9.50377 11.9113 8.8976 12.7558 8.8976C13.4206 8.8976 13.8338 9.31103 13.8338 9.99354C13.8338 10.1913 13.8158 10.4067 13.744 10.6403L13.151 12.7604C13.0611 13.0659 13.0254 13.3715 13.0254 13.6588C13.0254 14.6653 13.6181 15.4014 14.8579 15.4014C15.9179 15.4014 16.7623 14.719 17.2295 13.0839L16.439 12.7788C16.0437 13.8742 15.7023 14.0722 15.4328 14.0722C15.1633 14.0722 15.0195 13.8927 15.0195 13.5335C15.0195 13.3718 15.0556 13.1924 15.1093 12.9763L15.6844 10.9108C15.8281 10.4258 15.8821 9.99572 15.8821 9.60057C15.8821 8.05541 14.9477 7.249 13.8158 7.249C12.7558 7.249 11.6777 8.20517 11.1388 9.2115L11.534 7.40525H8.46177L8.03052 8.99619H9.46794L8.58278 12.5399C7.88771 14.0851 6.61091 14.1102 6.45067 14.0743C6.18755 14.0149 6.01927 13.915 6.01927 13.5731C6.01927 13.3759 6.05521 13.0925 6.14505 12.7509L7.49271 7.40525H4.07896L3.64771 8.99619H5.067L4.15083 12.7395" fill="white"/>
</g>
<defs>
<clipPath id="clip0_370_6897">
<rect width="20" height="20" fill="white" transform="translate(0.00012207 -0.000793457)"/>
</clipPath>
</defs>
</svg>
