<svg width="20" height="20" viewBox="0 0 20 20" fill="none" xmlns="http://www.w3.org/2000/svg">
<path d="M5.92688 9.23898C5.83511 9.11916 5.69961 9.04058 5.55004 9.02043C5.40047 9.00028 5.249 9.0402 5.1288 9.13146C5.05808 9.18723 5.00103 9.25842 4.96201 9.3396L0.0618777 19.1426C-0.00752496 19.2815 -0.0189246 19.4423 0.0301845 19.5897C0.0792935 19.737 0.184892 19.8588 0.32377 19.9283C0.404946 19.9694 0.494692 19.9906 0.585661 19.9903H7.41277C7.52212 19.9931 7.62991 19.964 7.72294 19.9064C7.81597 19.8489 7.89021 19.7655 7.93655 19.6664C9.41004 16.6229 8.51685 11.9957 5.92688 9.23898Z" fill="url(#paint0_linear_370_6980)"/>
<path d="M9.52853 0.318096C8.30698 2.19786 7.59507 4.36289 7.46265 6.60078C7.33022 8.83867 7.78184 11.0726 8.77318 13.0833L12.0647 19.6664C12.1134 19.7637 12.1881 19.8455 12.2806 19.9027C12.3731 19.9599 12.4798 19.9903 12.5885 19.9903H19.4143C19.4912 19.9905 19.5675 19.9755 19.6387 19.9461C19.7098 19.9167 19.7745 19.8736 19.8289 19.8191C19.8833 19.7647 19.9265 19.7001 19.9559 19.6289C19.9852 19.5577 20.0003 19.4815 20.0001 19.4045C20.0001 19.3137 19.9794 19.2241 19.9394 19.1426L10.5251 0.31534C10.4804 0.220998 10.4099 0.141281 10.3217 0.0854577C10.2334 0.0296347 10.1312 0 10.0268 0C9.92243 0 9.82018 0.0296347 9.73197 0.0854577C9.64376 0.141281 9.57322 0.220998 9.52853 0.31534V0.318096Z" fill="#2684FF"/>
<defs>
<linearGradient id="paint0_linear_370_6980" x1="8.62436" y1="10.7373" x2="3.44993" y2="19.6995" gradientUnits="userSpaceOnUse">
<stop stop-color="#0052CC"/>
<stop offset="0.92" stop-color="#2684FF"/>
</linearGradient>
</defs>
</svg>
