<svg width="20" height="20" viewBox="0 0 20 20" fill="none" xmlns="http://www.w3.org/2000/svg">
<path d="M3.54179 0.5H16.4585C18.4168 0.5 20.0001 2.08333 20.0001 4.04167V16.4583C20.0001 18.4167 18.4168 20 16.4585 20H3.54179C1.58346 20 0.00012207 18.4167 0.00012207 16.4583V4.04167C0.00012207 2.08333 1.58346 0.5 3.54179 0.5Z" fill="#470137"/>
<path d="M10.5168 5.625L8.01684 9.75L10.6835 14.125C10.7002 14.1583 10.7085 14.1917 10.7002 14.225C10.6918 14.2583 10.6585 14.2333 10.6085 14.2417H8.70018C8.56684 14.2417 8.47518 14.2333 8.41684 14.15C8.24184 13.8 8.05851 13.4583 7.88351 13.1083C7.70851 12.7667 7.51684 12.4167 7.31684 12.0583C7.11684 11.7 6.91684 11.3417 6.71684 10.975H6.70018C6.52518 11.3333 6.33351 11.6917 6.14184 12.05C5.95018 12.4083 5.75851 12.7667 5.57518 13.1167C5.38351 13.4667 5.19184 13.825 5.00018 14.1667C4.96684 14.25 4.90018 14.2583 4.80851 14.2583H2.97518C2.94184 14.2583 2.91684 14.275 2.91684 14.2333C2.90851 14.2 2.91684 14.1667 2.93351 14.1417L5.52518 9.89167L3.00018 5.61667C2.97518 5.58333 2.96684 5.55 2.98351 5.53333C3.00018 5.50833 3.03351 5.5 3.06684 5.5H4.95851C5.00018 5.5 5.04184 5.50833 5.07518 5.51667C5.10851 5.53333 5.13351 5.55833 5.15851 5.59167C5.31684 5.95 5.50018 6.30833 5.69184 6.66667C5.89184 7.025 6.08351 7.375 6.29184 7.725C6.49184 8.075 6.67518 8.425 6.85018 8.78333H6.86684C7.04184 8.41667 7.22518 8.05833 7.40851 7.70833C7.59184 7.35833 7.78351 7.00833 7.97518 6.65833C8.16684 6.30833 8.35018 5.95 8.53351 5.60833C8.54184 5.575 8.55851 5.54167 8.58351 5.525C8.61684 5.50833 8.65018 5.5 8.69184 5.50833H10.4502C10.4918 5.5 10.5335 5.525 10.5418 5.56667C10.5502 5.575 10.5335 5.60833 10.5168 5.625Z" fill="#FF61F6"/>
<path d="M14.3668 14.4167C13.7501 14.425 13.1335 14.3 12.5751 14.0417C12.0501 13.8 11.6168 13.4 11.3168 12.9084C11.0085 12.4 10.8585 11.7667 10.8585 11.0084C10.8501 10.3917 11.0085 9.78337 11.3168 9.25004C11.6335 8.70837 12.0918 8.25837 12.6418 7.95837C13.2251 7.63337 13.9251 7.47504 14.7501 7.47504C14.7918 7.47504 14.8501 7.47504 14.9251 7.48337C15.0001 7.4917 15.0835 7.4917 15.1835 7.50004V4.8667C15.1835 4.80837 15.2085 4.77504 15.2668 4.77504H16.9585C17.0001 4.7667 17.0335 4.80004 17.0418 4.83337C17.0418 4.8417 17.0418 4.85004 17.0418 4.85004V12.7834C17.0418 12.9334 17.0501 13.1 17.0585 13.2834C17.0751 13.4584 17.0835 13.625 17.0918 13.7667C17.0918 13.825 17.0668 13.875 17.0085 13.9C16.5751 14.0834 16.1168 14.2167 15.6501 14.3C15.2251 14.375 14.8001 14.4167 14.3668 14.4167ZM15.1835 12.75V9.08337C15.1085 9.0667 15.0335 9.05004 14.9585 9.0417C14.8668 9.03337 14.7751 9.02504 14.6835 9.02504C14.3585 9.02504 14.0335 9.0917 13.7418 9.2417C13.4585 9.38337 13.2168 9.5917 13.0335 9.85837C12.8501 10.125 12.7585 10.4834 12.7585 10.9167C12.7501 11.2084 12.8001 11.5 12.9001 11.775C12.9835 12 13.1085 12.2 13.2751 12.3667C13.4335 12.5167 13.6251 12.6334 13.8418 12.7C14.0668 12.775 14.3001 12.8084 14.5335 12.8084C14.6585 12.8084 14.7751 12.8 14.8835 12.7917C14.9918 12.8 15.0835 12.7834 15.1835 12.75Z" fill="#FF61F6"/>
</svg>
